<svg width="136" height="41" viewBox="0 0 136 41" fill="none" xmlns="http://www.w3.org/2000/svg">
<rect x="34.5" y="10.5488" width="67" height="19" rx="8" fill="#FFEFEF"/>
<path d="M50.858 14.9868C50.9793 14.7255 51.18 14.5948 51.46 14.5948C51.6467 14.5948 51.8147 14.6602 51.964 14.7908C52.1133 14.9122 52.188 15.0615 52.188 15.2388C52.188 15.3042 52.1647 15.3928 52.118 15.5048L48.17 24.1568C48.1047 24.3062 48.002 24.4228 47.862 24.5068C47.722 24.5908 47.5727 24.6328 47.414 24.6328C47.2553 24.6328 47.1013 24.5908 46.952 24.5068C46.812 24.4228 46.7093 24.3062 46.644 24.1568L42.71 15.5048C42.6633 15.3928 42.64 15.3042 42.64 15.2388C42.64 15.0522 42.7147 14.8982 42.864 14.7768C43.0227 14.6555 43.1953 14.5948 43.382 14.5948C43.6713 14.5948 43.8767 14.7255 43.998 14.9868L47.428 22.6728L50.858 14.9868ZM57.8514 22.8268C57.9821 22.8268 58.0894 22.8782 58.1734 22.9808C58.2574 23.0835 58.2994 23.2142 58.2994 23.3728C58.2994 23.6435 58.1314 23.8722 57.7954 24.0588C57.4688 24.2455 57.1094 24.3902 56.7174 24.4928C56.3348 24.5955 55.9661 24.6468 55.6114 24.6468C54.5288 24.6468 53.6748 24.3342 53.0494 23.7088C52.4241 23.0742 52.1114 22.2108 52.1114 21.1188C52.1114 20.4188 52.2468 19.7982 52.5174 19.2568C52.7974 18.7155 53.1848 18.2955 53.6794 17.9968C54.1834 17.6982 54.7528 17.5488 55.3874 17.5488C56.3021 17.5488 57.0254 17.8428 57.5574 18.4308C58.0894 19.0188 58.3554 19.8122 58.3554 20.8108C58.3554 21.1842 58.1874 21.3708 57.8514 21.3708H53.5254C53.6188 22.8175 54.3141 23.5408 55.6114 23.5408C55.9568 23.5408 56.2554 23.4942 56.5074 23.4008C56.7594 23.3075 57.0254 23.1862 57.3054 23.0368C57.3334 23.0182 57.4081 22.9808 57.5294 22.9248C57.6601 22.8595 57.7674 22.8268 57.8514 22.8268ZM55.4154 18.5848C54.8741 18.5848 54.4401 18.7575 54.1134 19.1028C53.7868 19.4482 53.5908 19.9335 53.5254 20.5588H57.1374C57.1094 19.9242 56.9461 19.4388 56.6474 19.1028C56.3581 18.7575 55.9474 18.5848 55.4154 18.5848ZM63.5956 17.5488C65.2289 17.5488 66.0456 18.4682 66.0456 20.3068V23.9468C66.0456 24.1615 65.9803 24.3295 65.8496 24.4508C65.7283 24.5628 65.5556 24.6188 65.3316 24.6188C65.1169 24.6188 64.9443 24.5582 64.8136 24.4368C64.6923 24.3155 64.6316 24.1522 64.6316 23.9468V20.3768C64.6316 19.7982 64.5149 19.3735 64.2816 19.1028C64.0576 18.8322 63.7029 18.6968 63.2176 18.6968C62.6483 18.6968 62.1909 18.8742 61.8456 19.2288C61.5003 19.5835 61.3276 20.0595 61.3276 20.6568V23.9468C61.3276 24.1522 61.2623 24.3155 61.1316 24.4368C61.0103 24.5582 60.8423 24.6188 60.6276 24.6188C60.4129 24.6188 60.2403 24.5582 60.1096 24.4368C59.9789 24.3155 59.9136 24.1522 59.9136 23.9468V18.2488C59.9136 18.0528 59.9789 17.8942 60.1096 17.7728C60.2496 17.6422 60.4223 17.5768 60.6276 17.5768C60.8329 17.5768 60.9963 17.6375 61.1176 17.7588C61.2389 17.8802 61.2996 18.0388 61.2996 18.2348V18.8088C61.5236 18.3982 61.8363 18.0855 62.2376 17.8708C62.6389 17.6562 63.0916 17.5488 63.5956 17.5488ZM70.906 24.6468C70.2433 24.6468 69.66 24.5022 69.156 24.2128C68.6613 23.9235 68.274 23.5128 67.994 22.9808C67.7233 22.4488 67.588 21.8328 67.588 21.1328C67.588 20.4235 67.728 19.7982 68.008 19.2568C68.2973 18.7155 68.6987 18.2955 69.212 17.9968C69.7253 17.6982 70.3133 17.5488 70.976 17.5488C71.3307 17.5488 71.6853 17.6002 72.04 17.7028C72.404 17.8055 72.726 17.9455 73.006 18.1228C73.3047 18.3282 73.454 18.5662 73.454 18.8368C73.454 18.9955 73.412 19.1308 73.328 19.2428C73.244 19.3455 73.1367 19.3968 73.006 19.3968C72.922 19.3968 72.838 19.3782 72.754 19.3408C72.67 19.2942 72.5627 19.2288 72.432 19.1448C72.1987 18.9955 71.9793 18.8835 71.774 18.8088C71.578 18.7248 71.34 18.6828 71.06 18.6828C70.4253 18.6828 69.9307 18.8975 69.576 19.3268C69.2307 19.7562 69.058 20.3535 69.058 21.1188C69.058 21.8842 69.2307 22.4768 69.576 22.8968C69.9213 23.3075 70.4113 23.5128 71.046 23.5128C71.326 23.5128 71.5733 23.4708 71.788 23.3868C72.0027 23.3028 72.222 23.1908 72.446 23.0508C72.5487 22.9855 72.6513 22.9295 72.754 22.8828C72.8567 22.8362 72.95 22.8128 73.034 22.8128C73.1647 22.8128 73.272 22.8688 73.356 22.9808C73.44 23.0835 73.482 23.2142 73.482 23.3728C73.482 23.5035 73.4447 23.6248 73.37 23.7368C73.3047 23.8395 73.188 23.9468 73.02 24.0588C72.74 24.2455 72.4133 24.3902 72.04 24.4928C71.6667 24.5955 71.2887 24.6468 70.906 24.6468ZM75.4616 24.6188C75.2562 24.6188 75.0836 24.5628 74.9436 24.4508C74.8129 24.3388 74.7476 24.1708 74.7476 23.9468V18.2628C74.7476 18.0388 74.8129 17.8708 74.9436 17.7588C75.0836 17.6375 75.2562 17.5768 75.4616 17.5768C75.6669 17.5768 75.8349 17.6375 75.9656 17.7588C76.0962 17.8708 76.1616 18.0388 76.1616 18.2628V23.9468C76.1616 24.1708 76.0962 24.3388 75.9656 24.4508C75.8349 24.5628 75.6669 24.6188 75.4616 24.6188ZM75.4616 16.2048C75.1909 16.2048 74.9762 16.1302 74.8176 15.9808C74.6589 15.8315 74.5796 15.6355 74.5796 15.3928C74.5796 15.1502 74.6589 14.9588 74.8176 14.8188C74.9762 14.6695 75.1909 14.5948 75.4616 14.5948C75.7229 14.5948 75.9329 14.6695 76.0916 14.8188C76.2596 14.9588 76.3436 15.1502 76.3436 15.3928C76.3436 15.6355 76.2642 15.8315 76.1056 15.9808C75.9469 16.1302 75.7322 16.2048 75.4616 16.2048ZM83.7242 14.6088C83.9389 14.6088 84.1115 14.6695 84.2422 14.7908C84.3729 14.9122 84.4382 15.0755 84.4382 15.2808V23.9328C84.4382 24.1475 84.3729 24.3155 84.2422 24.4368C84.1209 24.5582 83.9529 24.6188 83.7382 24.6188C83.5235 24.6188 83.3509 24.5582 83.2202 24.4368C83.0989 24.3155 83.0382 24.1475 83.0382 23.9328V23.3728C82.8329 23.7835 82.5342 24.1008 82.1422 24.3248C81.7502 24.5395 81.2975 24.6468 80.7842 24.6468C80.1962 24.6468 79.6689 24.4975 79.2022 24.1988C78.7449 23.9002 78.3855 23.4802 78.1242 22.9388C77.8722 22.3975 77.7462 21.7768 77.7462 21.0768C77.7462 20.3675 77.8722 19.7468 78.1242 19.2148C78.3855 18.6828 78.7449 18.2722 79.2022 17.9828C79.6595 17.6935 80.1869 17.5488 80.7842 17.5488C81.2975 17.5488 81.7455 17.6608 82.1282 17.8848C82.5202 18.0995 82.8189 18.4075 83.0242 18.8088V15.2528C83.0242 15.0568 83.0849 14.9028 83.2062 14.7908C83.3369 14.6695 83.5095 14.6088 83.7242 14.6088ZM81.1202 23.5268C81.7269 23.5268 82.1982 23.3168 82.5342 22.8968C82.8702 22.4768 83.0382 21.8795 83.0382 21.1048C83.0382 20.3302 82.8702 19.7328 82.5342 19.3128C82.2075 18.8928 81.7362 18.6828 81.1202 18.6828C80.5042 18.6828 80.0235 18.8928 79.6782 19.3128C79.3422 19.7235 79.1742 20.3115 79.1742 21.0768C79.1742 21.8422 79.3469 22.4442 79.6922 22.8828C80.0375 23.3122 80.5135 23.5268 81.1202 23.5268ZM89.2797 17.5488C90.185 17.5488 90.857 17.7775 91.2957 18.2348C91.7437 18.6922 91.9677 19.3875 91.9677 20.3208V23.9468C91.9677 24.1615 91.907 24.3295 91.7857 24.4508C91.6644 24.5628 91.4964 24.6188 91.2817 24.6188C91.0764 24.6188 90.913 24.5582 90.7917 24.4368C90.6704 24.3155 90.6097 24.1522 90.6097 23.9468V23.4288C90.4324 23.8208 90.1664 24.1242 89.8117 24.3388C89.4664 24.5442 89.0604 24.6468 88.5937 24.6468C88.1457 24.6468 87.735 24.5582 87.3617 24.3808C86.9977 24.1942 86.7084 23.9422 86.4937 23.6248C86.279 23.3075 86.1717 22.9482 86.1717 22.5468C86.1624 22.0428 86.2884 21.6508 86.5497 21.3708C86.811 21.0815 87.2357 20.8762 87.8237 20.7548C88.4117 20.6242 89.2284 20.5588 90.2737 20.5588H90.5957V20.1528C90.5957 19.6302 90.4884 19.2522 90.2737 19.0188C90.059 18.7855 89.7137 18.6688 89.2377 18.6688C88.911 18.6688 88.603 18.7108 88.3137 18.7948C88.0244 18.8788 87.707 19.0002 87.3617 19.1588C87.1097 19.2988 86.9324 19.3688 86.8297 19.3688C86.6897 19.3688 86.573 19.3175 86.4797 19.2148C86.3957 19.1122 86.3537 18.9815 86.3537 18.8228C86.3537 18.6828 86.391 18.5615 86.4657 18.4588C86.5497 18.3468 86.6804 18.2395 86.8577 18.1368C87.1844 17.9595 87.567 17.8195 88.0057 17.7168C88.4444 17.6048 88.869 17.5488 89.2797 17.5488ZM88.8457 23.5968C89.359 23.5968 89.779 23.4242 90.1057 23.0788C90.4324 22.7242 90.5957 22.2715 90.5957 21.7208V21.3568H90.3437C89.6157 21.3568 89.0557 21.3895 88.6637 21.4548C88.2717 21.5202 87.9917 21.6322 87.8237 21.7908C87.6557 21.9402 87.5717 22.1595 87.5717 22.4488C87.5717 22.7848 87.693 23.0602 87.9357 23.2748C88.1784 23.4895 88.4817 23.5968 88.8457 23.5968Z" fill="#971D1D"/>
</svg>
