<svg width="145" height="41" viewBox="0 0 145 41" fill="none" xmlns="http://www.w3.org/2000/svg">
<rect x="48" y="10.8906" width="49" height="19" rx="8" fill="#EEF6F6"/>
<path d="M57.862 24.9606C57.6473 24.9606 57.4747 24.8953 57.344 24.7646C57.2133 24.634 57.148 24.4566 57.148 24.2326V15.7206C57.148 15.506 57.2087 15.338 57.33 15.2166C57.4607 15.086 57.638 15.0206 57.862 15.0206H61.236C62.2813 15.0206 63.0933 15.2773 63.672 15.7906C64.2507 16.304 64.54 17.032 64.54 17.9746C64.54 18.908 64.2507 19.636 63.672 20.1586C63.0933 20.6813 62.2813 20.9426 61.236 20.9426H58.59V24.2326C58.59 24.4566 58.5247 24.634 58.394 24.7646C58.2727 24.8953 58.0953 24.9606 57.862 24.9606ZM61.082 19.7806C62.4633 19.7806 63.154 19.1786 63.154 17.9746C63.154 16.78 62.4633 16.1826 61.082 16.1826H58.59V19.7806H61.082ZM68.8188 17.8906C69.7241 17.8906 70.3961 18.1193 70.8348 18.5766C71.2828 19.034 71.5068 19.7293 71.5068 20.6626V24.2886C71.5068 24.5033 71.4461 24.6713 71.3248 24.7926C71.2034 24.9046 71.0354 24.9606 70.8208 24.9606C70.6154 24.9606 70.4521 24.9 70.3308 24.7786C70.2094 24.6573 70.1488 24.494 70.1488 24.2886V23.7706C69.9714 24.1626 69.7054 24.466 69.3508 24.6806C69.0054 24.886 68.5994 24.9886 68.1328 24.9886C67.6848 24.9886 67.2741 24.9 66.9008 24.7226C66.5368 24.536 66.2474 24.284 66.0328 23.9666C65.8181 23.6493 65.7108 23.29 65.7108 22.8886C65.7014 22.3846 65.8274 21.9926 66.0888 21.7126C66.3501 21.4233 66.7748 21.218 67.3628 21.0966C67.9508 20.966 68.7674 20.9006 69.8128 20.9006H70.1348V20.4946C70.1348 19.972 70.0274 19.594 69.8128 19.3606C69.5981 19.1273 69.2528 19.0106 68.7768 19.0106C68.4501 19.0106 68.1421 19.0526 67.8528 19.1366C67.5634 19.2206 67.2461 19.342 66.9008 19.5006C66.6488 19.6406 66.4714 19.7106 66.3688 19.7106C66.2288 19.7106 66.1121 19.6593 66.0188 19.5566C65.9348 19.454 65.8927 19.3233 65.8927 19.1646C65.8927 19.0246 65.9301 18.9033 66.0048 18.8006C66.0888 18.6886 66.2194 18.5813 66.3968 18.4786C66.7234 18.3013 67.1061 18.1613 67.5448 18.0586C67.9834 17.9466 68.4081 17.8906 68.8188 17.8906ZM68.3848 23.9386C68.8981 23.9386 69.3181 23.766 69.6448 23.4206C69.9714 23.066 70.1348 22.6133 70.1348 22.0626V21.6986H69.8828C69.1548 21.6986 68.5948 21.7313 68.2028 21.7966C67.8108 21.862 67.5308 21.974 67.3628 22.1326C67.1948 22.282 67.1108 22.5013 67.1108 22.7906C67.1108 23.1266 67.2321 23.402 67.4748 23.6166C67.7174 23.8313 68.0208 23.9386 68.3848 23.9386ZM79.0969 17.9186C79.3116 17.9186 79.4796 17.984 79.6009 18.1146C79.7316 18.236 79.7969 18.3993 79.7969 18.6046V24.3446C79.7969 25.39 79.5169 26.1786 78.9569 26.7106C78.4063 27.2426 77.5896 27.5086 76.5069 27.5086C75.4989 27.5086 74.6589 27.3173 73.9869 26.9346C73.6416 26.7386 73.4689 26.5053 73.4689 26.2346C73.4689 26.076 73.5109 25.9453 73.5949 25.8426C73.6883 25.74 73.8003 25.6886 73.9309 25.6886C74.0523 25.6886 74.2436 25.7586 74.5049 25.8986C74.8409 26.0573 75.1536 26.1786 75.4429 26.2626C75.7323 26.356 76.0776 26.4026 76.4789 26.4026C77.7669 26.4026 78.4109 25.754 78.4109 24.4566V23.3786C78.2149 23.7893 77.9163 24.1113 77.5149 24.3446C77.1136 24.5686 76.6469 24.6806 76.1149 24.6806C75.5176 24.6806 74.9856 24.5406 74.5189 24.2606C74.0523 23.9806 73.6883 23.584 73.4269 23.0706C73.1749 22.5573 73.0489 21.9646 73.0489 21.2926C73.0489 20.6206 73.1796 20.028 73.4409 19.5146C73.7023 19.0013 74.0616 18.6046 74.5189 18.3246C74.9856 18.0353 75.5176 17.8906 76.1149 17.8906C76.6376 17.8906 77.0949 18.0026 77.4869 18.2266C77.8883 18.4506 78.1916 18.768 78.3969 19.1786V18.5906C78.3969 18.3853 78.4576 18.222 78.5789 18.1006C78.7096 17.9793 78.8823 17.9186 79.0969 17.9186ZM76.4509 23.5606C77.0576 23.5606 77.5336 23.36 77.8789 22.9586C78.2243 22.5573 78.3969 22.002 78.3969 21.2926C78.3969 20.5926 78.2243 20.042 77.8789 19.6406C77.5429 19.23 77.0669 19.0246 76.4509 19.0246C75.8349 19.0246 75.3496 19.2253 74.9949 19.6266C74.6496 20.028 74.4769 20.5833 74.4769 21.2926C74.4769 22.002 74.6543 22.5573 75.0089 22.9586C75.3636 23.36 75.8443 23.5606 76.4509 23.5606ZM84.6371 17.8906C85.5424 17.8906 86.2144 18.1193 86.6531 18.5766C87.1011 19.034 87.3251 19.7293 87.3251 20.6626V24.2886C87.3251 24.5033 87.2644 24.6713 87.1431 24.7926C87.0218 24.9046 86.8538 24.9606 86.6391 24.9606C86.4338 24.9606 86.2704 24.9 86.1491 24.7786C86.0278 24.6573 85.9671 24.494 85.9671 24.2886V23.7706C85.7898 24.1626 85.5238 24.466 85.1691 24.6806C84.8238 24.886 84.4178 24.9886 83.9511 24.9886C83.5031 24.9886 83.0924 24.9 82.7191 24.7226C82.3551 24.536 82.0658 24.284 81.8511 23.9666C81.6364 23.6493 81.5291 23.29 81.5291 22.8886C81.5198 22.3846 81.6458 21.9926 81.9071 21.7126C82.1684 21.4233 82.5931 21.218 83.1811 21.0966C83.7691 20.966 84.5858 20.9006 85.6311 20.9006H85.9531V20.4946C85.9531 19.972 85.8458 19.594 85.6311 19.3606C85.4164 19.1273 85.0711 19.0106 84.5951 19.0106C84.2684 19.0106 83.9604 19.0526 83.6711 19.1366C83.3818 19.2206 83.0644 19.342 82.7191 19.5006C82.4671 19.6406 82.2898 19.7106 82.1871 19.7106C82.0471 19.7106 81.9304 19.6593 81.8371 19.5566C81.7531 19.454 81.7111 19.3233 81.7111 19.1646C81.7111 19.0246 81.7484 18.9033 81.8231 18.8006C81.9071 18.6886 82.0378 18.5813 82.2151 18.4786C82.5418 18.3013 82.9244 18.1613 83.3631 18.0586C83.8018 17.9466 84.2264 17.8906 84.6371 17.8906ZM84.2031 23.9386C84.7164 23.9386 85.1364 23.766 85.4631 23.4206C85.7898 23.066 85.9531 22.6133 85.9531 22.0626V21.6986H85.7011C84.9731 21.6986 84.4131 21.7313 84.0211 21.7966C83.6291 21.862 83.3491 21.974 83.1811 22.1326C83.0131 22.282 82.9291 22.5013 82.9291 22.7906C82.9291 23.1266 83.0504 23.402 83.2931 23.6166C83.5358 23.8313 83.8391 23.9386 84.2031 23.9386Z" fill="#1FA7AF"/>
</svg>
