<svg width="129" height="41" viewBox="0 0 129 41" fill="none" xmlns="http://www.w3.org/2000/svg">
<rect x="26" y="10.7441" width="77" height="19" rx="8" fill="#FCF6DC"/>
<path d="M35.862 24.8141C35.6473 24.8141 35.4747 24.7488 35.344 24.6181C35.2133 24.4875 35.148 24.3101 35.148 24.0861V15.5741C35.148 15.3595 35.2087 15.1915 35.33 15.0701C35.4607 14.9395 35.638 14.8741 35.862 14.8741H39.236C40.2813 14.8741 41.0933 15.1308 41.672 15.6441C42.2507 16.1575 42.54 16.8855 42.54 17.8281C42.54 18.7615 42.2507 19.4895 41.672 20.0121C41.0933 20.5348 40.2813 20.7961 39.236 20.7961H36.59V24.0861C36.59 24.3101 36.5247 24.4875 36.394 24.6181C36.2727 24.7488 36.0953 24.8141 35.862 24.8141ZM39.082 19.6341C40.4633 19.6341 41.154 19.0321 41.154 17.8281C41.154 16.6335 40.4633 16.0361 39.082 16.0361H36.59V19.6341H39.082ZM49.2284 23.0221C49.3591 23.0221 49.4664 23.0735 49.5504 23.1761C49.6344 23.2788 49.6764 23.4095 49.6764 23.5681C49.6764 23.8388 49.5084 24.0675 49.1724 24.2541C48.8457 24.4408 48.4864 24.5855 48.0944 24.6881C47.7117 24.7908 47.3431 24.8421 46.9884 24.8421C45.9057 24.8421 45.0517 24.5295 44.4264 23.9041C43.8011 23.2695 43.4884 22.4061 43.4884 21.3141C43.4884 20.6141 43.6237 19.9935 43.8944 19.4521C44.1744 18.9108 44.5617 18.4908 45.0564 18.1921C45.5604 17.8935 46.1297 17.7441 46.7644 17.7441C47.6791 17.7441 48.4024 18.0381 48.9344 18.6261C49.4664 19.2141 49.7324 20.0075 49.7324 21.0061C49.7324 21.3795 49.5644 21.5661 49.2284 21.5661H44.9024C44.9957 23.0128 45.6911 23.7361 46.9884 23.7361C47.3337 23.7361 47.6324 23.6895 47.8844 23.5961C48.1364 23.5028 48.4024 23.3815 48.6824 23.2321C48.7104 23.2135 48.7851 23.1761 48.9064 23.1201C49.0371 23.0548 49.1444 23.0221 49.2284 23.0221ZM46.7924 18.7801C46.2511 18.7801 45.8171 18.9528 45.4904 19.2981C45.1637 19.6435 44.9677 20.1288 44.9024 20.7541H48.5144C48.4864 20.1195 48.3231 19.6341 48.0244 19.2981C47.7351 18.9528 47.3244 18.7801 46.7924 18.7801ZM54.9725 17.7441C56.6059 17.7441 57.4225 18.6635 57.4225 20.5021V24.1421C57.4225 24.3568 57.3572 24.5248 57.2265 24.6461C57.1052 24.7581 56.9325 24.8141 56.7085 24.8141C56.4939 24.8141 56.3212 24.7535 56.1905 24.6321C56.0692 24.5108 56.0085 24.3475 56.0085 24.1421V20.5721C56.0085 19.9935 55.8919 19.5688 55.6585 19.2981C55.4345 19.0275 55.0799 18.8921 54.5945 18.8921C54.0252 18.8921 53.5679 19.0695 53.2225 19.4241C52.8772 19.7788 52.7045 20.2548 52.7045 20.8521V24.1421C52.7045 24.3475 52.6392 24.5108 52.5085 24.6321C52.3872 24.7535 52.2192 24.8141 52.0045 24.8141C51.7899 24.8141 51.6172 24.7535 51.4865 24.6321C51.3559 24.5108 51.2905 24.3475 51.2905 24.1421V18.4441C51.2905 18.2481 51.3559 18.0895 51.4865 17.9681C51.6265 17.8375 51.7992 17.7721 52.0045 17.7721C52.2099 17.7721 52.3732 17.8328 52.4945 17.9541C52.6159 18.0755 52.6765 18.2341 52.6765 18.4301V19.0041C52.9005 18.5935 53.2132 18.2808 53.6145 18.0661C54.0159 17.8515 54.4685 17.7441 54.9725 17.7441ZM64.943 14.8041C65.1576 14.8041 65.3303 14.8648 65.461 14.9861C65.5916 15.1075 65.657 15.2708 65.657 15.4761V24.1281C65.657 24.3428 65.5916 24.5108 65.461 24.6321C65.3396 24.7535 65.1716 24.8141 64.957 24.8141C64.7423 24.8141 64.5696 24.7535 64.439 24.6321C64.3176 24.5108 64.257 24.3428 64.257 24.1281V23.5681C64.0516 23.9788 63.753 24.2961 63.361 24.5201C62.969 24.7348 62.5163 24.8421 62.003 24.8421C61.415 24.8421 60.8876 24.6928 60.421 24.3941C59.9636 24.0955 59.6043 23.6755 59.343 23.1341C59.091 22.5928 58.965 21.9721 58.965 21.2721C58.965 20.5628 59.091 19.9421 59.343 19.4101C59.6043 18.8781 59.9636 18.4675 60.421 18.1781C60.8783 17.8888 61.4056 17.7441 62.003 17.7441C62.5163 17.7441 62.9643 17.8561 63.347 18.0801C63.739 18.2948 64.0376 18.6028 64.243 19.0041V15.4481C64.243 15.2521 64.3036 15.0981 64.425 14.9861C64.5556 14.8648 64.7283 14.8041 64.943 14.8041ZM62.339 23.7221C62.9456 23.7221 63.417 23.5121 63.753 23.0921C64.089 22.6721 64.257 22.0748 64.257 21.3001C64.257 20.5255 64.089 19.9281 63.753 19.5081C63.4263 19.0881 62.955 18.8781 62.339 18.8781C61.723 18.8781 61.2423 19.0881 60.897 19.5081C60.561 19.9188 60.393 20.5068 60.393 21.2721C60.393 22.0375 60.5656 22.6395 60.911 23.0781C61.2563 23.5075 61.7323 23.7221 62.339 23.7221ZM72.9764 23.0221C73.1071 23.0221 73.2144 23.0735 73.2984 23.1761C73.3824 23.2788 73.4244 23.4095 73.4244 23.5681C73.4244 23.8388 73.2564 24.0675 72.9204 24.2541C72.5938 24.4408 72.2344 24.5855 71.8424 24.6881C71.4598 24.7908 71.0911 24.8421 70.7364 24.8421C69.6538 24.8421 68.7998 24.5295 68.1744 23.9041C67.5491 23.2695 67.2364 22.4061 67.2364 21.3141C67.2364 20.6141 67.3718 19.9935 67.6424 19.4521C67.9224 18.9108 68.3098 18.4908 68.8044 18.1921C69.3084 17.8935 69.8778 17.7441 70.5124 17.7441C71.4271 17.7441 72.1504 18.0381 72.6824 18.6261C73.2144 19.2141 73.4804 20.0075 73.4804 21.0061C73.4804 21.3795 73.3124 21.5661 72.9764 21.5661H68.6504C68.7438 23.0128 69.4391 23.7361 70.7364 23.7361C71.0818 23.7361 71.3804 23.6895 71.6324 23.5961C71.8844 23.5028 72.1504 23.3815 72.4304 23.2321C72.4584 23.2135 72.5331 23.1761 72.6544 23.1201C72.7851 23.0548 72.8924 23.0221 72.9764 23.0221ZM70.5404 18.7801C69.9991 18.7801 69.5651 18.9528 69.2384 19.2981C68.9118 19.6435 68.7158 20.1288 68.6504 20.7541H72.2624C72.2344 20.1195 72.0711 19.6341 71.7724 19.2981C71.4831 18.9528 71.0724 18.7801 70.5404 18.7801ZM78.7206 17.7441C80.3539 17.7441 81.1706 18.6635 81.1706 20.5021V24.1421C81.1706 24.3568 81.1053 24.5248 80.9746 24.6461C80.8533 24.7581 80.6806 24.8141 80.4566 24.8141C80.2419 24.8141 80.0693 24.7535 79.9386 24.6321C79.8173 24.5108 79.7566 24.3475 79.7566 24.1421V20.5721C79.7566 19.9935 79.6399 19.5688 79.4066 19.2981C79.1826 19.0275 78.8279 18.8921 78.3426 18.8921C77.7733 18.8921 77.3159 19.0695 76.9706 19.4241C76.6253 19.7788 76.4526 20.2548 76.4526 20.8521V24.1421C76.4526 24.3475 76.3873 24.5108 76.2566 24.6321C76.1353 24.7535 75.9673 24.8141 75.7526 24.8141C75.5379 24.8141 75.3653 24.7535 75.2346 24.6321C75.1039 24.5108 75.0386 24.3475 75.0386 24.1421V18.4441C75.0386 18.2481 75.1039 18.0895 75.2346 17.9681C75.3746 17.8375 75.5473 17.7721 75.7526 17.7721C75.9579 17.7721 76.1213 17.8328 76.2426 17.9541C76.3639 18.0755 76.4246 18.2341 76.4246 18.4301V19.0041C76.6486 18.5935 76.9613 18.2808 77.3626 18.0661C77.7639 17.8515 78.2166 17.7441 78.7206 17.7441ZM86.451 23.7361C86.6563 23.7548 86.801 23.8108 86.885 23.9041C86.9783 23.9881 87.025 24.1095 87.025 24.2681C87.025 24.4548 86.9503 24.5995 86.801 24.7021C86.661 24.7955 86.451 24.8328 86.171 24.8141L85.793 24.7861C85.037 24.7301 84.4723 24.5015 84.099 24.1001C83.7257 23.6895 83.539 23.0875 83.539 22.2941V19.0041H82.699C82.2883 19.0041 82.083 18.8221 82.083 18.4581C82.083 18.2901 82.1343 18.1595 82.237 18.0661C82.349 17.9635 82.503 17.9121 82.699 17.9121H83.539V16.4701C83.539 16.2555 83.5997 16.0875 83.721 15.9661C83.8517 15.8448 84.0243 15.7841 84.239 15.7841C84.4537 15.7841 84.6263 15.8448 84.757 15.9661C84.8877 16.0875 84.953 16.2555 84.953 16.4701V17.9121H86.339C86.535 17.9121 86.6843 17.9635 86.787 18.0661C86.899 18.1595 86.955 18.2901 86.955 18.4581C86.955 18.6355 86.899 18.7708 86.787 18.8641C86.6843 18.9575 86.535 19.0041 86.339 19.0041H84.953V22.3921C84.953 22.8308 85.0417 23.1528 85.219 23.3581C85.4057 23.5635 85.6857 23.6801 86.059 23.7081L86.451 23.7361ZM93.3885 23.0221C93.5192 23.0221 93.6265 23.0735 93.7105 23.1761C93.7945 23.2788 93.8365 23.4095 93.8365 23.5681C93.8365 23.8388 93.6685 24.0675 93.3325 24.2541C93.0059 24.4408 92.6465 24.5855 92.2545 24.6881C91.8719 24.7908 91.5032 24.8421 91.1485 24.8421C90.0659 24.8421 89.2119 24.5295 88.5865 23.9041C87.9612 23.2695 87.6485 22.4061 87.6485 21.3141C87.6485 20.6141 87.7839 19.9935 88.0545 19.4521C88.3345 18.9108 88.7219 18.4908 89.2165 18.1921C89.7205 17.8935 90.2899 17.7441 90.9245 17.7441C91.8392 17.7441 92.5625 18.0381 93.0945 18.6261C93.6265 19.2141 93.8925 20.0075 93.8925 21.0061C93.8925 21.3795 93.7245 21.5661 93.3885 21.5661H89.0625C89.1559 23.0128 89.8512 23.7361 91.1485 23.7361C91.4939 23.7361 91.7925 23.6895 92.0445 23.5961C92.2965 23.5028 92.5625 23.3815 92.8425 23.2321C92.8705 23.2135 92.9452 23.1761 93.0665 23.1201C93.1972 23.0548 93.3045 23.0221 93.3885 23.0221ZM90.9525 18.7801C90.4112 18.7801 89.9772 18.9528 89.6505 19.2981C89.3239 19.6435 89.1279 20.1288 89.0625 20.7541H92.6745C92.6465 20.1195 92.4832 19.6341 92.1845 19.2981C91.8952 18.9528 91.4845 18.7801 90.9525 18.7801Z" fill="#C5A605"/>
</svg>
