<svg width="67" height="20" viewBox="0 0 67 20" fill="none" xmlns="http://www.w3.org/2000/svg">
<rect y="0.124023" width="67" height="19" rx="8" fill="#FFEFEF"/>
<path d="M16.358 4.56202C16.4793 4.30069 16.68 4.17002 16.96 4.17002C17.1467 4.17002 17.3147 4.23536 17.464 4.36602C17.6133 4.48736 17.688 4.63669 17.688 4.81402C17.688 4.87936 17.6647 4.96802 17.618 5.08002L13.67 13.732C13.6047 13.8814 13.502 13.998 13.362 14.082C13.222 14.166 13.0727 14.208 12.914 14.208C12.7553 14.208 12.6013 14.166 12.452 14.082C12.312 13.998 12.2093 13.8814 12.144 13.732L8.21 5.08002C8.16333 4.96802 8.14 4.87936 8.14 4.81402C8.14 4.62736 8.21467 4.47336 8.364 4.35202C8.52267 4.23069 8.69533 4.17002 8.882 4.17002C9.17133 4.17002 9.37667 4.30069 9.498 4.56202L12.928 12.248L16.358 4.56202ZM23.3514 12.402C23.4821 12.402 23.5894 12.4534 23.6734 12.556C23.7574 12.6587 23.7994 12.7894 23.7994 12.948C23.7994 13.2187 23.6314 13.4474 23.2954 13.634C22.9688 13.8207 22.6094 13.9654 22.2174 14.068C21.8348 14.1707 21.4661 14.222 21.1114 14.222C20.0288 14.222 19.1748 13.9094 18.5494 13.284C17.9241 12.6494 17.6114 11.786 17.6114 10.694C17.6114 9.99402 17.7468 9.37336 18.0174 8.83202C18.2974 8.29069 18.6848 7.87069 19.1794 7.57202C19.6834 7.27336 20.2528 7.12402 20.8874 7.12402C21.8021 7.12402 22.5254 7.41802 23.0574 8.00602C23.5894 8.59402 23.8554 9.38736 23.8554 10.386C23.8554 10.7594 23.6874 10.946 23.3514 10.946H19.0254C19.1188 12.3927 19.8141 13.116 21.1114 13.116C21.4568 13.116 21.7554 13.0694 22.0074 12.976C22.2594 12.8827 22.5254 12.7614 22.8054 12.612C22.8334 12.5934 22.9081 12.556 23.0294 12.5C23.1601 12.4347 23.2674 12.402 23.3514 12.402ZM20.9154 8.16002C20.3741 8.16002 19.9401 8.33269 19.6134 8.67802C19.2868 9.02336 19.0908 9.50869 19.0254 10.134H22.6374C22.6094 9.49936 22.4461 9.01402 22.1474 8.67802C21.8581 8.33269 21.4474 8.16002 20.9154 8.16002ZM29.0956 7.12402C30.7289 7.12402 31.5456 8.04336 31.5456 9.88202V13.522C31.5456 13.7367 31.4803 13.9047 31.3496 14.026C31.2283 14.138 31.0556 14.194 30.8316 14.194C30.6169 14.194 30.4443 14.1334 30.3136 14.012C30.1923 13.8907 30.1316 13.7274 30.1316 13.522V9.95202C30.1316 9.37336 30.0149 8.94869 29.7816 8.67802C29.5576 8.40736 29.2029 8.27202 28.7176 8.27202C28.1483 8.27202 27.6909 8.44936 27.3456 8.80402C27.0003 9.15869 26.8276 9.63469 26.8276 10.232V13.522C26.8276 13.7274 26.7623 13.8907 26.6316 14.012C26.5103 14.1334 26.3423 14.194 26.1276 14.194C25.9129 14.194 25.7403 14.1334 25.6096 14.012C25.4789 13.8907 25.4136 13.7274 25.4136 13.522V7.82402C25.4136 7.62802 25.4789 7.46936 25.6096 7.34802C25.7496 7.21736 25.9223 7.15202 26.1276 7.15202C26.3329 7.15202 26.4963 7.21269 26.6176 7.33402C26.7389 7.45536 26.7996 7.61402 26.7996 7.81002V8.38402C27.0236 7.97336 27.3363 7.66069 27.7376 7.44602C28.1389 7.23136 28.5916 7.12402 29.0956 7.12402ZM36.406 14.222C35.7433 14.222 35.16 14.0774 34.656 13.788C34.1613 13.4987 33.774 13.088 33.494 12.556C33.2233 12.024 33.088 11.408 33.088 10.708C33.088 9.99869 33.228 9.37336 33.508 8.83202C33.7973 8.29069 34.1987 7.87069 34.712 7.57202C35.2253 7.27336 35.8133 7.12402 36.476 7.12402C36.8307 7.12402 37.1853 7.17536 37.54 7.27802C37.904 7.38069 38.226 7.52069 38.506 7.69802C38.8047 7.90336 38.954 8.14136 38.954 8.41202C38.954 8.57069 38.912 8.70602 38.828 8.81802C38.744 8.92069 38.6367 8.97202 38.506 8.97202C38.422 8.97202 38.338 8.95336 38.254 8.91602C38.17 8.86936 38.0627 8.80402 37.932 8.72002C37.6987 8.57069 37.4793 8.45869 37.274 8.38402C37.078 8.30002 36.84 8.25802 36.56 8.25802C35.9253 8.25802 35.4307 8.47269 35.076 8.90202C34.7307 9.33136 34.558 9.92869 34.558 10.694C34.558 11.4594 34.7307 12.052 35.076 12.472C35.4213 12.8827 35.9113 13.088 36.546 13.088C36.826 13.088 37.0733 13.046 37.288 12.962C37.5027 12.878 37.722 12.766 37.946 12.626C38.0487 12.5607 38.1513 12.5047 38.254 12.458C38.3567 12.4114 38.45 12.388 38.534 12.388C38.6647 12.388 38.772 12.444 38.856 12.556C38.94 12.6587 38.982 12.7894 38.982 12.948C38.982 13.0787 38.9447 13.2 38.87 13.312C38.8047 13.4147 38.688 13.522 38.52 13.634C38.24 13.8207 37.9133 13.9654 37.54 14.068C37.1667 14.1707 36.7887 14.222 36.406 14.222ZM40.9616 14.194C40.7562 14.194 40.5836 14.138 40.4436 14.026C40.3129 13.914 40.2476 13.746 40.2476 13.522V7.83802C40.2476 7.61402 40.3129 7.44602 40.4436 7.33402C40.5836 7.21269 40.7562 7.15202 40.9616 7.15202C41.1669 7.15202 41.3349 7.21269 41.4656 7.33402C41.5962 7.44602 41.6616 7.61402 41.6616 7.83802V13.522C41.6616 13.746 41.5962 13.914 41.4656 14.026C41.3349 14.138 41.1669 14.194 40.9616 14.194ZM40.9616 5.78002C40.6909 5.78002 40.4762 5.70536 40.3176 5.55602C40.1589 5.40669 40.0796 5.21069 40.0796 4.96802C40.0796 4.72536 40.1589 4.53402 40.3176 4.39402C40.4762 4.24469 40.6909 4.17002 40.9616 4.17002C41.2229 4.17002 41.4329 4.24469 41.5916 4.39402C41.7596 4.53402 41.8436 4.72536 41.8436 4.96802C41.8436 5.21069 41.7642 5.40669 41.6056 5.55602C41.4469 5.70536 41.2322 5.78002 40.9616 5.78002ZM49.2242 4.18402C49.4389 4.18402 49.6115 4.24469 49.7422 4.36602C49.8729 4.48736 49.9382 4.65069 49.9382 4.85602V13.508C49.9382 13.7227 49.8729 13.8907 49.7422 14.012C49.6209 14.1334 49.4529 14.194 49.2382 14.194C49.0235 14.194 48.8509 14.1334 48.7202 14.012C48.5989 13.8907 48.5382 13.7227 48.5382 13.508V12.948C48.3329 13.3587 48.0342 13.676 47.6422 13.9C47.2502 14.1147 46.7975 14.222 46.2842 14.222C45.6962 14.222 45.1689 14.0727 44.7022 13.774C44.2449 13.4754 43.8855 13.0554 43.6242 12.514C43.3722 11.9727 43.2462 11.352 43.2462 10.652C43.2462 9.94269 43.3722 9.32202 43.6242 8.79002C43.8855 8.25802 44.2449 7.84736 44.7022 7.55802C45.1595 7.26869 45.6869 7.12402 46.2842 7.12402C46.7975 7.12402 47.2455 7.23602 47.6282 7.46002C48.0202 7.67469 48.3189 7.98269 48.5242 8.38402V4.82802C48.5242 4.63202 48.5849 4.47802 48.7062 4.36602C48.8369 4.24469 49.0095 4.18402 49.2242 4.18402ZM46.6202 13.102C47.2269 13.102 47.6982 12.892 48.0342 12.472C48.3702 12.052 48.5382 11.4547 48.5382 10.68C48.5382 9.90536 48.3702 9.30802 48.0342 8.88802C47.7075 8.46802 47.2362 8.25802 46.6202 8.25802C46.0042 8.25802 45.5235 8.46802 45.1782 8.88802C44.8422 9.29869 44.6742 9.88669 44.6742 10.652C44.6742 11.4174 44.8469 12.0194 45.1922 12.458C45.5375 12.8874 46.0135 13.102 46.6202 13.102ZM54.7797 7.12402C55.685 7.12402 56.357 7.35269 56.7957 7.81002C57.2437 8.26736 57.4677 8.96269 57.4677 9.89602V13.522C57.4677 13.7367 57.407 13.9047 57.2857 14.026C57.1644 14.138 56.9964 14.194 56.7817 14.194C56.5764 14.194 56.413 14.1334 56.2917 14.012C56.1704 13.8907 56.1097 13.7274 56.1097 13.522V13.004C55.9324 13.396 55.6664 13.6994 55.3117 13.914C54.9664 14.1194 54.5604 14.222 54.0937 14.222C53.6457 14.222 53.235 14.1334 52.8617 13.956C52.4977 13.7694 52.2084 13.5174 51.9937 13.2C51.779 12.8827 51.6717 12.5234 51.6717 12.122C51.6624 11.618 51.7884 11.226 52.0497 10.946C52.311 10.6567 52.7357 10.4514 53.3237 10.33C53.9117 10.1994 54.7284 10.134 55.7737 10.134H56.0957V9.72802C56.0957 9.20536 55.9884 8.82736 55.7737 8.59402C55.559 8.36069 55.2137 8.24402 54.7377 8.24402C54.411 8.24402 54.103 8.28602 53.8137 8.37002C53.5244 8.45402 53.207 8.57536 52.8617 8.73402C52.6097 8.87402 52.4324 8.94402 52.3297 8.94402C52.1897 8.94402 52.073 8.89269 51.9797 8.79002C51.8957 8.68736 51.8537 8.55669 51.8537 8.39802C51.8537 8.25802 51.891 8.13669 51.9657 8.03402C52.0497 7.92202 52.1804 7.81469 52.3577 7.71202C52.6844 7.53469 53.067 7.39469 53.5057 7.29202C53.9444 7.18002 54.369 7.12402 54.7797 7.12402ZM54.3457 13.172C54.859 13.172 55.279 12.9994 55.6057 12.654C55.9324 12.2994 56.0957 11.8467 56.0957 11.296V10.932H55.8437C55.1157 10.932 54.5557 10.9647 54.1637 11.03C53.7717 11.0954 53.4917 11.2074 53.3237 11.366C53.1557 11.5154 53.0717 11.7347 53.0717 12.024C53.0717 12.36 53.193 12.6354 53.4357 12.85C53.6784 13.0647 53.9817 13.172 54.3457 13.172Z" fill="#971D1D"/>
</svg>
