<svg width="49" height="20" viewBox="0 0 49 20" fill="none" xmlns="http://www.w3.org/2000/svg">
<rect y="0.890625" width="49" height="19" rx="8" fill="#EEF6F6"/>
<path d="M9.862 14.9606C9.64733 14.9606 9.47467 14.8953 9.344 14.7646C9.21333 14.634 9.148 14.4566 9.148 14.2326V5.72062C9.148 5.50596 9.20867 5.33796 9.33 5.21662C9.46067 5.08596 9.638 5.02062 9.862 5.02062H13.236C14.2813 5.02062 15.0933 5.27729 15.672 5.79062C16.2507 6.30396 16.54 7.03196 16.54 7.97462C16.54 8.90796 16.2507 9.63596 15.672 10.1586C15.0933 10.6813 14.2813 10.9426 13.236 10.9426H10.59V14.2326C10.59 14.4566 10.5247 14.634 10.394 14.7646C10.2727 14.8953 10.0953 14.9606 9.862 14.9606ZM13.082 9.78062C14.4633 9.78062 15.154 9.17862 15.154 7.97462C15.154 6.77996 14.4633 6.18262 13.082 6.18262H10.59V9.78062H13.082ZM20.8188 7.89062C21.7241 7.89062 22.3961 8.11929 22.8348 8.57662C23.2828 9.03396 23.5068 9.72929 23.5068 10.6626V14.2886C23.5068 14.5033 23.4461 14.6713 23.3248 14.7926C23.2034 14.9046 23.0354 14.9606 22.8208 14.9606C22.6154 14.9606 22.4521 14.9 22.3308 14.7786C22.2094 14.6573 22.1488 14.494 22.1488 14.2886V13.7706C21.9714 14.1626 21.7054 14.466 21.3508 14.6806C21.0054 14.886 20.5994 14.9886 20.1328 14.9886C19.6848 14.9886 19.2741 14.9 18.9008 14.7226C18.5368 14.536 18.2474 14.284 18.0328 13.9666C17.8181 13.6493 17.7108 13.29 17.7108 12.8886C17.7014 12.3846 17.8274 11.9926 18.0888 11.7126C18.3501 11.4233 18.7748 11.218 19.3628 11.0966C19.9508 10.966 20.7674 10.9006 21.8128 10.9006H22.1348V10.4946C22.1348 9.97196 22.0274 9.59396 21.8128 9.36062C21.5981 9.12729 21.2528 9.01062 20.7768 9.01062C20.4501 9.01062 20.1421 9.05262 19.8528 9.13662C19.5634 9.22062 19.2461 9.34196 18.9008 9.50062C18.6488 9.64062 18.4714 9.71062 18.3688 9.71062C18.2288 9.71062 18.1121 9.65929 18.0188 9.55662C17.9348 9.45396 17.8927 9.32329 17.8927 9.16462C17.8927 9.02462 17.9301 8.90329 18.0048 8.80062C18.0888 8.68862 18.2194 8.58129 18.3968 8.47862C18.7234 8.30129 19.1061 8.16129 19.5448 8.05862C19.9834 7.94662 20.4081 7.89062 20.8188 7.89062ZM20.3848 13.9386C20.8981 13.9386 21.3181 13.766 21.6448 13.4206C21.9714 13.066 22.1348 12.6133 22.1348 12.0626V11.6986H21.8828C21.1548 11.6986 20.5948 11.7313 20.2028 11.7966C19.8108 11.862 19.5308 11.974 19.3628 12.1326C19.1948 12.282 19.1108 12.5013 19.1108 12.7906C19.1108 13.1266 19.2321 13.402 19.4748 13.6166C19.7174 13.8313 20.0208 13.9386 20.3848 13.9386ZM31.0969 7.91862C31.3116 7.91862 31.4796 7.98396 31.6009 8.11462C31.7316 8.23596 31.7969 8.39929 31.7969 8.60462V14.3446C31.7969 15.39 31.5169 16.1786 30.9569 16.7106C30.4063 17.2426 29.5896 17.5086 28.5069 17.5086C27.4989 17.5086 26.6589 17.3173 25.9869 16.9346C25.6416 16.7386 25.4689 16.5053 25.4689 16.2346C25.4689 16.076 25.5109 15.9453 25.5949 15.8426C25.6883 15.74 25.8003 15.6886 25.9309 15.6886C26.0523 15.6886 26.2436 15.7586 26.5049 15.8986C26.8409 16.0573 27.1536 16.1786 27.4429 16.2626C27.7323 16.356 28.0776 16.4026 28.4789 16.4026C29.7669 16.4026 30.4109 15.754 30.4109 14.4566V13.3786C30.2149 13.7893 29.9163 14.1113 29.5149 14.3446C29.1136 14.5686 28.6469 14.6806 28.1149 14.6806C27.5176 14.6806 26.9856 14.5406 26.5189 14.2606C26.0523 13.9806 25.6883 13.584 25.4269 13.0706C25.1749 12.5573 25.0489 11.9646 25.0489 11.2926C25.0489 10.6206 25.1796 10.028 25.4409 9.51462C25.7023 9.00129 26.0616 8.60462 26.5189 8.32462C26.9856 8.03529 27.5176 7.89062 28.1149 7.89062C28.6376 7.89062 29.0949 8.00262 29.4869 8.22662C29.8883 8.45062 30.1916 8.76796 30.3969 9.17862V8.59062C30.3969 8.38529 30.4576 8.22196 30.5789 8.10062C30.7096 7.97929 30.8823 7.91862 31.0969 7.91862ZM28.4509 13.5606C29.0576 13.5606 29.5336 13.36 29.8789 12.9586C30.2243 12.5573 30.3969 12.002 30.3969 11.2926C30.3969 10.5926 30.2243 10.042 29.8789 9.64062C29.5429 9.22996 29.0669 9.02462 28.4509 9.02462C27.8349 9.02462 27.3496 9.22529 26.9949 9.62662C26.6496 10.028 26.4769 10.5833 26.4769 11.2926C26.4769 12.002 26.6543 12.5573 27.0089 12.9586C27.3636 13.36 27.8443 13.5606 28.4509 13.5606ZM36.6371 7.89062C37.5424 7.89062 38.2144 8.11929 38.6531 8.57662C39.1011 9.03396 39.3251 9.72929 39.3251 10.6626V14.2886C39.3251 14.5033 39.2644 14.6713 39.1431 14.7926C39.0218 14.9046 38.8538 14.9606 38.6391 14.9606C38.4338 14.9606 38.2704 14.9 38.1491 14.7786C38.0278 14.6573 37.9671 14.494 37.9671 14.2886V13.7706C37.7898 14.1626 37.5238 14.466 37.1691 14.6806C36.8238 14.886 36.4178 14.9886 35.9511 14.9886C35.5031 14.9886 35.0924 14.9 34.7191 14.7226C34.3551 14.536 34.0658 14.284 33.8511 13.9666C33.6364 13.6493 33.5291 13.29 33.5291 12.8886C33.5198 12.3846 33.6458 11.9926 33.9071 11.7126C34.1684 11.4233 34.5931 11.218 35.1811 11.0966C35.7691 10.966 36.5858 10.9006 37.6311 10.9006H37.9531V10.4946C37.9531 9.97196 37.8458 9.59396 37.6311 9.36062C37.4164 9.12729 37.0711 9.01062 36.5951 9.01062C36.2684 9.01062 35.9604 9.05262 35.6711 9.13662C35.3818 9.22062 35.0644 9.34196 34.7191 9.50062C34.4671 9.64062 34.2898 9.71062 34.1871 9.71062C34.0471 9.71062 33.9304 9.65929 33.8371 9.55662C33.7531 9.45396 33.7111 9.32329 33.7111 9.16462C33.7111 9.02462 33.7484 8.90329 33.8231 8.80062C33.9071 8.68862 34.0378 8.58129 34.2151 8.47862C34.5418 8.30129 34.9244 8.16129 35.3631 8.05862C35.8018 7.94662 36.2264 7.89062 36.6371 7.89062ZM36.2031 13.9386C36.7164 13.9386 37.1364 13.766 37.4631 13.4206C37.7898 13.066 37.9531 12.6133 37.9531 12.0626V11.6986H37.7011C36.9731 11.6986 36.4131 11.7313 36.0211 11.7966C35.6291 11.862 35.3491 11.974 35.1811 12.1326C35.0131 12.282 34.9291 12.5013 34.9291 12.7906C34.9291 13.1266 35.0504 13.402 35.2931 13.6166C35.5358 13.8313 35.8391 13.9386 36.2031 13.9386Z" fill="#1FA7AF"/>
</svg>
