<svg width="77" height="20" viewBox="0 0 77 20" fill="none" xmlns="http://www.w3.org/2000/svg">
<rect y="0.744141" width="77" height="19" rx="8" fill="#FCF6DC"/>
<path d="M9.862 14.8141C9.64733 14.8141 9.47467 14.7488 9.344 14.6181C9.21333 14.4875 9.148 14.3101 9.148 14.0861V5.57414C9.148 5.35947 9.20867 5.19147 9.33 5.07014C9.46067 4.93947 9.638 4.87414 9.862 4.87414H13.236C14.2813 4.87414 15.0933 5.13081 15.672 5.64414C16.2507 6.15747 16.54 6.88547 16.54 7.82814C16.54 8.76147 16.2507 9.48947 15.672 10.0121C15.0933 10.5348 14.2813 10.7961 13.236 10.7961H10.59V14.0861C10.59 14.3101 10.5247 14.4875 10.394 14.6181C10.2727 14.7488 10.0953 14.8141 9.862 14.8141ZM13.082 9.63414C14.4633 9.63414 15.154 9.03214 15.154 7.82814C15.154 6.63347 14.4633 6.03614 13.082 6.03614H10.59V9.63414H13.082ZM23.2284 13.0221C23.3591 13.0221 23.4664 13.0735 23.5504 13.1761C23.6344 13.2788 23.6764 13.4095 23.6764 13.5681C23.6764 13.8388 23.5084 14.0675 23.1724 14.2541C22.8457 14.4408 22.4864 14.5855 22.0944 14.6881C21.7117 14.7908 21.3431 14.8421 20.9884 14.8421C19.9057 14.8421 19.0517 14.5295 18.4264 13.9041C17.8011 13.2695 17.4884 12.4061 17.4884 11.3141C17.4884 10.6141 17.6237 9.99347 17.8944 9.45214C18.1744 8.91081 18.5617 8.49081 19.0564 8.19214C19.5604 7.89347 20.1297 7.74414 20.7644 7.74414C21.6791 7.74414 22.4024 8.03814 22.9344 8.62614C23.4664 9.21414 23.7324 10.0075 23.7324 11.0061C23.7324 11.3795 23.5644 11.5661 23.2284 11.5661H18.9024C18.9957 13.0128 19.6911 13.7361 20.9884 13.7361C21.3337 13.7361 21.6324 13.6895 21.8844 13.5961C22.1364 13.5028 22.4024 13.3815 22.6824 13.2321C22.7104 13.2135 22.7851 13.1761 22.9064 13.1201C23.0371 13.0548 23.1444 13.0221 23.2284 13.0221ZM20.7924 8.78014C20.2511 8.78014 19.8171 8.95281 19.4904 9.29814C19.1637 9.64347 18.9677 10.1288 18.9024 10.7541H22.5144C22.4864 10.1195 22.3231 9.63414 22.0244 9.29814C21.7351 8.95281 21.3244 8.78014 20.7924 8.78014ZM28.9725 7.74414C30.6059 7.74414 31.4225 8.66347 31.4225 10.5021V14.1421C31.4225 14.3568 31.3572 14.5248 31.2265 14.6461C31.1052 14.7581 30.9325 14.8141 30.7085 14.8141C30.4939 14.8141 30.3212 14.7535 30.1905 14.6321C30.0692 14.5108 30.0085 14.3475 30.0085 14.1421V10.5721C30.0085 9.99347 29.8919 9.56881 29.6585 9.29814C29.4345 9.02747 29.0799 8.89214 28.5945 8.89214C28.0252 8.89214 27.5679 9.06947 27.2225 9.42414C26.8772 9.77881 26.7045 10.2548 26.7045 10.8521V14.1421C26.7045 14.3475 26.6392 14.5108 26.5085 14.6321C26.3872 14.7535 26.2192 14.8141 26.0045 14.8141C25.7899 14.8141 25.6172 14.7535 25.4865 14.6321C25.3559 14.5108 25.2905 14.3475 25.2905 14.1421V8.44414C25.2905 8.24814 25.3559 8.08947 25.4865 7.96814C25.6265 7.83747 25.7992 7.77214 26.0045 7.77214C26.2099 7.77214 26.3732 7.83281 26.4945 7.95414C26.6159 8.07547 26.6765 8.23414 26.6765 8.43014V9.00414C26.9005 8.59347 27.2132 8.28081 27.6145 8.06614C28.0159 7.85147 28.4685 7.74414 28.9725 7.74414ZM38.943 4.80414C39.1576 4.80414 39.3303 4.86481 39.461 4.98614C39.5916 5.10747 39.657 5.27081 39.657 5.47614V14.1281C39.657 14.3428 39.5916 14.5108 39.461 14.6321C39.3396 14.7535 39.1716 14.8141 38.957 14.8141C38.7423 14.8141 38.5696 14.7535 38.439 14.6321C38.3176 14.5108 38.257 14.3428 38.257 14.1281V13.5681C38.0516 13.9788 37.753 14.2961 37.361 14.5201C36.969 14.7348 36.5163 14.8421 36.003 14.8421C35.415 14.8421 34.8876 14.6928 34.421 14.3941C33.9636 14.0955 33.6043 13.6755 33.343 13.1341C33.091 12.5928 32.965 11.9721 32.965 11.2721C32.965 10.5628 33.091 9.94214 33.343 9.41014C33.6043 8.87814 33.9636 8.46747 34.421 8.17814C34.8783 7.88881 35.4056 7.74414 36.003 7.74414C36.5163 7.74414 36.9643 7.85614 37.347 8.08014C37.739 8.29481 38.0376 8.60281 38.243 9.00414V5.44814C38.243 5.25214 38.3036 5.09814 38.425 4.98614C38.5556 4.86481 38.7283 4.80414 38.943 4.80414ZM36.339 13.7221C36.9456 13.7221 37.417 13.5121 37.753 13.0921C38.089 12.6721 38.257 12.0748 38.257 11.3001C38.257 10.5255 38.089 9.92814 37.753 9.50814C37.4263 9.08814 36.955 8.87814 36.339 8.87814C35.723 8.87814 35.2423 9.08814 34.897 9.50814C34.561 9.91881 34.393 10.5068 34.393 11.2721C34.393 12.0375 34.5656 12.6395 34.911 13.0781C35.2563 13.5075 35.7323 13.7221 36.339 13.7221ZM46.9764 13.0221C47.1071 13.0221 47.2144 13.0735 47.2984 13.1761C47.3824 13.2788 47.4244 13.4095 47.4244 13.5681C47.4244 13.8388 47.2564 14.0675 46.9204 14.2541C46.5938 14.4408 46.2344 14.5855 45.8424 14.6881C45.4598 14.7908 45.0911 14.8421 44.7364 14.8421C43.6538 14.8421 42.7998 14.5295 42.1744 13.9041C41.5491 13.2695 41.2364 12.4061 41.2364 11.3141C41.2364 10.6141 41.3718 9.99347 41.6424 9.45214C41.9224 8.91081 42.3098 8.49081 42.8044 8.19214C43.3084 7.89347 43.8778 7.74414 44.5124 7.74414C45.4271 7.74414 46.1504 8.03814 46.6824 8.62614C47.2144 9.21414 47.4804 10.0075 47.4804 11.0061C47.4804 11.3795 47.3124 11.5661 46.9764 11.5661H42.6504C42.7438 13.0128 43.4391 13.7361 44.7364 13.7361C45.0818 13.7361 45.3804 13.6895 45.6324 13.5961C45.8844 13.5028 46.1504 13.3815 46.4304 13.2321C46.4584 13.2135 46.5331 13.1761 46.6544 13.1201C46.7851 13.0548 46.8924 13.0221 46.9764 13.0221ZM44.5404 8.78014C43.9991 8.78014 43.5651 8.95281 43.2384 9.29814C42.9118 9.64347 42.7158 10.1288 42.6504 10.7541H46.2624C46.2344 10.1195 46.0711 9.63414 45.7724 9.29814C45.4831 8.95281 45.0724 8.78014 44.5404 8.78014ZM52.7206 7.74414C54.3539 7.74414 55.1706 8.66347 55.1706 10.5021V14.1421C55.1706 14.3568 55.1053 14.5248 54.9746 14.6461C54.8533 14.7581 54.6806 14.8141 54.4566 14.8141C54.2419 14.8141 54.0693 14.7535 53.9386 14.6321C53.8173 14.5108 53.7566 14.3475 53.7566 14.1421V10.5721C53.7566 9.99347 53.6399 9.56881 53.4066 9.29814C53.1826 9.02747 52.8279 8.89214 52.3426 8.89214C51.7733 8.89214 51.3159 9.06947 50.9706 9.42414C50.6253 9.77881 50.4526 10.2548 50.4526 10.8521V14.1421C50.4526 14.3475 50.3873 14.5108 50.2566 14.6321C50.1353 14.7535 49.9673 14.8141 49.7526 14.8141C49.5379 14.8141 49.3653 14.7535 49.2346 14.6321C49.1039 14.5108 49.0386 14.3475 49.0386 14.1421V8.44414C49.0386 8.24814 49.1039 8.08947 49.2346 7.96814C49.3746 7.83747 49.5473 7.77214 49.7526 7.77214C49.9579 7.77214 50.1213 7.83281 50.2426 7.95414C50.3639 8.07547 50.4246 8.23414 50.4246 8.43014V9.00414C50.6486 8.59347 50.9613 8.28081 51.3626 8.06614C51.7639 7.85147 52.2166 7.74414 52.7206 7.74414ZM60.451 13.7361C60.6563 13.7548 60.801 13.8108 60.885 13.9041C60.9783 13.9881 61.025 14.1095 61.025 14.2681C61.025 14.4548 60.9503 14.5995 60.801 14.7021C60.661 14.7955 60.451 14.8328 60.171 14.8141L59.793 14.7861C59.037 14.7301 58.4723 14.5015 58.099 14.1001C57.7257 13.6895 57.539 13.0875 57.539 12.2941V9.00414H56.699C56.2883 9.00414 56.083 8.82214 56.083 8.45814C56.083 8.29014 56.1343 8.15947 56.237 8.06614C56.349 7.96347 56.503 7.91214 56.699 7.91214H57.539V6.47014C57.539 6.25547 57.5997 6.08747 57.721 5.96614C57.8517 5.84481 58.0243 5.78414 58.239 5.78414C58.4537 5.78414 58.6263 5.84481 58.757 5.96614C58.8877 6.08747 58.953 6.25547 58.953 6.47014V7.91214H60.339C60.535 7.91214 60.6843 7.96347 60.787 8.06614C60.899 8.15947 60.955 8.29014 60.955 8.45814C60.955 8.63547 60.899 8.77081 60.787 8.86414C60.6843 8.95747 60.535 9.00414 60.339 9.00414H58.953V12.3921C58.953 12.8308 59.0417 13.1528 59.219 13.3581C59.4057 13.5635 59.6857 13.6801 60.059 13.7081L60.451 13.7361ZM67.3885 13.0221C67.5192 13.0221 67.6265 13.0735 67.7105 13.1761C67.7945 13.2788 67.8365 13.4095 67.8365 13.5681C67.8365 13.8388 67.6685 14.0675 67.3325 14.2541C67.0059 14.4408 66.6465 14.5855 66.2545 14.6881C65.8719 14.7908 65.5032 14.8421 65.1485 14.8421C64.0659 14.8421 63.2119 14.5295 62.5865 13.9041C61.9612 13.2695 61.6485 12.4061 61.6485 11.3141C61.6485 10.6141 61.7839 9.99347 62.0545 9.45214C62.3345 8.91081 62.7219 8.49081 63.2165 8.19214C63.7205 7.89347 64.2899 7.74414 64.9245 7.74414C65.8392 7.74414 66.5625 8.03814 67.0945 8.62614C67.6265 9.21414 67.8925 10.0075 67.8925 11.0061C67.8925 11.3795 67.7245 11.5661 67.3885 11.5661H63.0625C63.1559 13.0128 63.8512 13.7361 65.1485 13.7361C65.4939 13.7361 65.7925 13.6895 66.0445 13.5961C66.2965 13.5028 66.5625 13.3815 66.8425 13.2321C66.8705 13.2135 66.9452 13.1761 67.0665 13.1201C67.1972 13.0548 67.3045 13.0221 67.3885 13.0221ZM64.9525 8.78014C64.4112 8.78014 63.9772 8.95281 63.6505 9.29814C63.3239 9.64347 63.1279 10.1288 63.0625 10.7541H66.6745C66.6465 10.1195 66.4832 9.63414 66.1845 9.29814C65.8952 8.95281 65.4845 8.78014 64.9525 8.78014Z" fill="#C5A605"/>
</svg>
