<svg width="35" height="39" viewBox="0 0 35 39" fill="none" xmlns="http://www.w3.org/2000/svg">
<path d="M16.75 20.3477H13.25C12.1454 20.3477 11.25 19.4523 11.25 18.3477V7.84766C11.25 6.74309 12.1454 5.84766 13.25 5.84766H19.5L23.75 10.0977V12.3477" stroke="#DA0175" stroke-width="1.5" stroke-linecap="round" stroke-linejoin="round"/>
<path d="M22.5 15.8477V20.3477" stroke="#DA0175" stroke-width="1.5" stroke-linecap="round" stroke-linejoin="round"/>
<path d="M24.75 18.0977H20.25" stroke="#DA0175" stroke-width="1.5" stroke-linecap="round" stroke-linejoin="round"/>
<path d="M23.5 10.3477H19.25V6.09766" stroke="#DA0175" stroke-width="1.5" stroke-linecap="round" stroke-linejoin="round"/>
<path d="M3.112 33.1617C2.57333 33.1617 2.104 33.047 1.704 32.8177C1.304 32.583 0.997333 32.2497 0.784 31.8177C0.570667 31.3803 0.464 30.8657 0.464 30.2737C0.464 29.687 0.570667 29.1777 0.784 28.7457C0.997333 28.3083 1.304 27.975 1.704 27.7457C2.104 27.511 2.57333 27.3937 3.112 27.3937C3.464 27.3937 3.79733 27.4497 4.112 27.5617C4.42667 27.6683 4.70133 27.8257 4.936 28.0337C5.03733 28.1137 5.088 28.2203 5.088 28.3537C5.088 28.4497 5.06133 28.5323 5.008 28.6017C4.95467 28.6657 4.89067 28.6977 4.816 28.6977C4.72533 28.6977 4.63733 28.663 4.552 28.5937C4.296 28.4017 4.06133 28.2683 3.848 28.1937C3.64 28.1137 3.40267 28.0737 3.136 28.0737C2.54933 28.0737 2.09867 28.263 1.784 28.6417C1.46933 29.0203 1.312 29.5643 1.312 30.2737C1.312 30.9883 1.46933 31.535 1.784 31.9137C2.09867 32.2923 2.54933 32.4817 3.136 32.4817C3.392 32.4817 3.624 32.4417 3.832 32.3617C4.04533 32.2817 4.28533 32.1483 4.552 31.9617C4.65867 31.8923 4.74667 31.8577 4.816 31.8577C4.89067 31.8577 4.95467 31.8923 5.008 31.9617C5.06133 32.0257 5.088 32.1057 5.088 32.2017C5.088 32.335 5.03733 32.4417 4.936 32.5217C4.70133 32.7297 4.42667 32.8897 4.112 33.0017C3.79733 33.1083 3.464 33.1617 3.112 33.1617ZM7.59194 33.1537C7.20794 33.1537 6.86927 33.071 6.57594 32.9057C6.28794 32.7403 6.06394 32.5057 5.90394 32.2017C5.74927 31.8923 5.67194 31.535 5.67194 31.1297C5.67194 30.719 5.74927 30.3617 5.90394 30.0577C6.06394 29.7483 6.28794 29.511 6.57594 29.3457C6.86927 29.1803 7.20794 29.0977 7.59194 29.0977C7.97594 29.0977 8.31194 29.1803 8.59994 29.3457C8.89327 29.511 9.11727 29.7483 9.27194 30.0577C9.43194 30.3617 9.51194 30.719 9.51194 31.1297C9.51194 31.535 9.43194 31.8923 9.27194 32.2017C9.11727 32.5057 8.89327 32.7403 8.59994 32.9057C8.31194 33.071 7.97594 33.1537 7.59194 33.1537ZM7.59194 32.5137C7.94927 32.5137 8.22127 32.3963 8.40794 32.1617C8.59994 31.927 8.69594 31.583 8.69594 31.1297C8.69594 30.6817 8.59994 30.3403 8.40794 30.1057C8.21594 29.8657 7.94394 29.7457 7.59194 29.7457C7.23994 29.7457 6.96794 29.8657 6.77594 30.1057C6.58394 30.3403 6.48794 30.6817 6.48794 31.1297C6.48794 31.583 6.58127 31.927 6.76794 32.1617C6.95994 32.3963 7.2346 32.5137 7.59194 32.5137ZM12.5076 29.0977C12.8489 29.0977 13.1502 29.1803 13.4116 29.3457C13.6729 29.511 13.8756 29.7457 14.0196 30.0497C14.1689 30.3537 14.2436 30.7083 14.2436 31.1137C14.2436 31.5137 14.1689 31.8683 14.0196 32.1777C13.8756 32.487 13.6702 32.727 13.4036 32.8977C13.1422 33.0683 12.8436 33.1537 12.5076 33.1537C12.2142 33.1537 11.9556 33.0923 11.7316 32.9697C11.5076 32.8417 11.3369 32.6603 11.2196 32.4257V32.7457C11.2196 32.863 11.1822 32.959 11.1076 33.0337C11.0382 33.103 10.9422 33.1377 10.8196 33.1377C10.6969 33.1377 10.5982 33.103 10.5236 33.0337C10.4489 32.959 10.4116 32.863 10.4116 32.7457V27.8017C10.4116 27.6843 10.4489 27.591 10.5236 27.5217C10.6036 27.4523 10.7049 27.4177 10.8276 27.4177C10.9449 27.4177 11.0382 27.4523 11.1076 27.5217C11.1822 27.5857 11.2196 27.6737 11.2196 27.7857V29.8337C11.3369 29.599 11.5076 29.4177 11.7316 29.2897C11.9556 29.1617 12.2142 29.0977 12.5076 29.0977ZM12.3156 32.5137C12.6622 32.5137 12.9316 32.391 13.1236 32.1457C13.3209 31.9003 13.4196 31.5563 13.4196 31.1137C13.4196 30.6763 13.3236 30.3403 13.1316 30.1057C12.9396 29.8657 12.6676 29.7457 12.3156 29.7457C11.9636 29.7457 11.6916 29.8657 11.4996 30.1057C11.3129 30.3457 11.2196 30.687 11.2196 31.1297C11.2196 31.5723 11.3129 31.9137 11.4996 32.1537C11.6916 32.3937 11.9636 32.5137 12.3156 32.5137ZM17.1861 29.1137C17.4421 29.0977 17.5701 29.207 17.5701 29.4417C17.5701 29.559 17.5408 29.647 17.4821 29.7057C17.4235 29.7643 17.3221 29.799 17.1781 29.8097L16.9381 29.8337C16.6021 29.8657 16.3515 29.983 16.1861 30.1857C16.0261 30.3883 15.9461 30.6337 15.9461 30.9217V32.7537C15.9461 32.8817 15.9088 32.9777 15.8341 33.0417C15.7595 33.1057 15.6635 33.1377 15.5461 33.1377C15.4288 33.1377 15.3301 33.1057 15.2501 33.0417C15.1755 32.9777 15.1381 32.8817 15.1381 32.7537V29.4977C15.1381 29.375 15.1755 29.2817 15.2501 29.2177C15.3301 29.1483 15.4288 29.1137 15.5461 29.1137C15.6528 29.1137 15.7408 29.1483 15.8101 29.2177C15.8848 29.2817 15.9221 29.3723 15.9221 29.4897V29.8737C16.0288 29.639 16.1835 29.4603 16.3861 29.3377C16.5888 29.215 16.8181 29.143 17.0741 29.1217L17.1861 29.1137ZM19.6844 29.0977C20.2017 29.0977 20.5857 29.2283 20.8364 29.4897C21.0924 29.751 21.2204 30.1483 21.2204 30.6817V32.7537C21.2204 32.8763 21.1857 32.9723 21.1164 33.0417C21.047 33.1057 20.951 33.1377 20.8284 33.1377C20.711 33.1377 20.6177 33.103 20.5484 33.0337C20.479 32.9643 20.4444 32.871 20.4444 32.7537V32.4577C20.343 32.6817 20.191 32.855 19.9884 32.9777C19.791 33.095 19.559 33.1537 19.2924 33.1537C19.0364 33.1537 18.8017 33.103 18.5884 33.0017C18.3804 32.895 18.215 32.751 18.0924 32.5697C17.9697 32.3883 17.9084 32.183 17.9084 31.9537C17.903 31.6657 17.975 31.4417 18.1244 31.2817C18.2737 31.1163 18.5164 30.999 18.8524 30.9297C19.1884 30.855 19.655 30.8177 20.2524 30.8177H20.4364V30.5857C20.4364 30.287 20.375 30.071 20.2524 29.9377C20.1297 29.8043 19.9324 29.7377 19.6604 29.7377C19.4737 29.7377 19.2977 29.7617 19.1324 29.8097C18.967 29.8577 18.7857 29.927 18.5884 30.0177C18.4444 30.0977 18.343 30.1377 18.2844 30.1377C18.2044 30.1377 18.1377 30.1083 18.0844 30.0497C18.0364 29.991 18.0124 29.9163 18.0124 29.8257C18.0124 29.7457 18.0337 29.6763 18.0764 29.6177C18.1244 29.5537 18.199 29.4923 18.3004 29.4337C18.487 29.3323 18.7057 29.2523 18.9564 29.1937C19.207 29.1297 19.4497 29.0977 19.6844 29.0977ZM19.4364 32.5537C19.7297 32.5537 19.9697 32.455 20.1564 32.2577C20.343 32.055 20.4364 31.7963 20.4364 31.4817V31.2737H20.2924C19.8764 31.2737 19.5564 31.2923 19.3324 31.3297C19.1084 31.367 18.9484 31.431 18.8524 31.5217C18.7564 31.607 18.7084 31.7323 18.7084 31.8977C18.7084 32.0897 18.7777 32.247 18.9164 32.3697C19.055 32.4923 19.2284 32.5537 19.4364 32.5537ZM24.4296 29.0977C25.363 29.0977 25.8296 29.623 25.8296 30.6737V32.7537C25.8296 32.8763 25.7923 32.9723 25.7176 33.0417C25.6483 33.1057 25.5496 33.1377 25.4216 33.1377C25.299 33.1377 25.2003 33.103 25.1256 33.0337C25.0563 32.9643 25.0216 32.871 25.0216 32.7537V30.7137C25.0216 30.383 24.955 30.1403 24.8216 29.9857C24.6936 29.831 24.491 29.7537 24.2136 29.7537C23.8883 29.7537 23.627 29.855 23.4296 30.0577C23.2323 30.2603 23.1336 30.5323 23.1336 30.8737V32.7537C23.1336 32.871 23.0963 32.9643 23.0216 33.0337C22.9523 33.103 22.8563 33.1377 22.7336 33.1377C22.611 33.1377 22.5123 33.103 22.4376 33.0337C22.363 32.9643 22.3256 32.871 22.3256 32.7537V29.4977C22.3256 29.3857 22.363 29.295 22.4376 29.2257C22.5176 29.151 22.6163 29.1137 22.7336 29.1137C22.851 29.1137 22.9443 29.1483 23.0136 29.2177C23.083 29.287 23.1176 29.3777 23.1176 29.4897V29.8177C23.2456 29.583 23.4243 29.4043 23.6536 29.2817C23.883 29.159 24.1416 29.0977 24.4296 29.0977ZM29.823 32.1057C29.8977 32.1057 29.959 32.1377 30.007 32.2017C30.055 32.2603 30.079 32.335 30.079 32.4257C30.079 32.5003 30.0577 32.5697 30.015 32.6337C29.9777 32.6923 29.911 32.7537 29.815 32.8177C29.6763 32.9083 29.5163 32.983 29.335 33.0417C29.1537 33.1003 28.9697 33.135 28.783 33.1457L28.743 33.4497C28.8177 33.4337 28.8843 33.4257 28.943 33.4257C29.1083 33.4257 29.247 33.4737 29.359 33.5697C29.4763 33.6657 29.535 33.8017 29.535 33.9777C29.535 34.175 29.4497 34.335 29.279 34.4577C29.1083 34.5857 28.8657 34.6497 28.551 34.6497C28.343 34.6497 28.159 34.6203 27.999 34.5617C27.903 34.5243 27.855 34.4577 27.855 34.3617C27.855 34.2977 27.8763 34.2443 27.919 34.2017C27.967 34.159 28.0283 34.1483 28.103 34.1697C28.263 34.2123 28.4123 34.2337 28.551 34.2337C28.6897 34.2337 28.7963 34.2123 28.871 34.1697C28.9457 34.127 28.983 34.063 28.983 33.9777C28.983 33.9137 28.9617 33.863 28.919 33.8257C28.8817 33.7937 28.8257 33.7777 28.751 33.7777C28.6977 33.7777 28.6257 33.7883 28.535 33.8097C28.4443 33.831 28.3883 33.8417 28.367 33.8417C28.3243 33.8417 28.2843 33.8257 28.247 33.7937C28.215 33.767 28.2017 33.7297 28.207 33.6817L28.271 33.1297C27.791 33.055 27.4097 32.8417 27.127 32.4897C26.8497 32.1377 26.711 31.6897 26.711 31.1457C26.711 30.7403 26.791 30.383 26.951 30.0737C27.1163 29.7643 27.3457 29.5243 27.639 29.3537C27.9323 29.183 28.2683 29.0977 28.647 29.0977C28.8497 29.0977 29.0523 29.127 29.255 29.1857C29.463 29.2443 29.647 29.3243 29.807 29.4257C29.9777 29.543 30.063 29.679 30.063 29.8337C30.063 29.9243 30.039 30.0017 29.991 30.0657C29.943 30.1243 29.8817 30.1537 29.807 30.1537C29.759 30.1537 29.711 30.143 29.663 30.1217C29.615 30.095 29.5537 30.0577 29.479 30.0097C29.3457 29.9243 29.2203 29.8603 29.103 29.8177C28.991 29.7697 28.855 29.7457 28.695 29.7457C28.3323 29.7457 28.0497 29.8683 27.847 30.1137C27.6497 30.359 27.551 30.7003 27.551 31.1377C27.551 31.575 27.6497 31.9137 27.847 32.1537C28.0443 32.3883 28.3243 32.5057 28.687 32.5057C28.847 32.5057 28.9883 32.4817 29.111 32.4337C29.2337 32.3857 29.359 32.3217 29.487 32.2417C29.5457 32.2043 29.6043 32.1723 29.663 32.1457C29.7217 32.119 29.775 32.1057 29.823 32.1057ZM32.4422 29.0977C32.9595 29.0977 33.3435 29.2283 33.5942 29.4897C33.8502 29.751 33.9782 30.1483 33.9782 30.6817V32.7537C33.9782 32.8763 33.9435 32.9723 33.8742 33.0417C33.8049 33.1057 33.7089 33.1377 33.5862 33.1377C33.4689 33.1377 33.3755 33.103 33.3062 33.0337C33.2369 32.9643 33.2022 32.871 33.2022 32.7537V32.4577C33.1009 32.6817 32.9489 32.855 32.7462 32.9777C32.5489 33.095 32.3169 33.1537 32.0502 33.1537C31.7942 33.1537 31.5595 33.103 31.3462 33.0017C31.1382 32.895 30.9729 32.751 30.8502 32.5697C30.7275 32.3883 30.6662 32.183 30.6662 31.9537C30.6609 31.6657 30.7329 31.4417 30.8822 31.2817C31.0315 31.1163 31.2742 30.999 31.6102 30.9297C31.9462 30.855 32.4129 30.8177 33.0102 30.8177H33.1942V30.5857C33.1942 30.287 33.1329 30.071 33.0102 29.9377C32.8875 29.8043 32.6902 29.7377 32.4182 29.7377C32.2315 29.7377 32.0555 29.7617 31.8902 29.8097C31.7249 29.8577 31.5435 29.927 31.3462 30.0177C31.2022 30.0977 31.1009 30.1377 31.0422 30.1377C30.9622 30.1377 30.8955 30.1083 30.8422 30.0497C30.7942 29.991 30.7702 29.9163 30.7702 29.8257C30.7702 29.7457 30.7915 29.6763 30.8342 29.6177C30.8822 29.5537 30.9569 29.4923 31.0582 29.4337C31.2449 29.3323 31.4635 29.2523 31.7142 29.1937C31.9649 29.1297 32.2075 29.0977 32.4422 29.0977ZM32.1942 32.5537C32.4875 32.5537 32.7275 32.455 32.9142 32.2577C33.1009 32.055 33.1942 31.7963 33.1942 31.4817V31.2737H33.0502C32.6342 31.2737 32.3142 31.2923 32.0902 31.3297C31.8662 31.367 31.7062 31.431 31.6102 31.5217C31.5142 31.607 31.4662 31.7323 31.4662 31.8977C31.4662 32.0897 31.5355 32.247 31.6742 32.3697C31.8129 32.4923 31.9862 32.5537 32.1942 32.5537Z" fill="#DA0175"/>
</svg>
