<svg width="100" height="20" viewBox="0 0 100 20" fill="none" xmlns="http://www.w3.org/2000/svg">
<rect x="0.5" y="0.597656" width="99" height="19" rx="8" fill="#FFEFEF"/>
<path d="M10.362 14.6677C10.1473 14.6677 9.97467 14.6023 9.844 14.4717C9.71333 14.341 9.648 14.1637 9.648 13.9397V5.38566C9.648 5.17099 9.71333 4.99832 9.844 4.86766C9.97467 4.72766 10.1473 4.65766 10.362 4.65766C10.586 4.65766 10.7633 4.72299 10.894 4.85366C11.0247 4.98432 11.09 5.16166 11.09 5.38566V13.9397C11.09 14.1637 11.0247 14.341 10.894 14.4717C10.7727 14.6023 10.5953 14.6677 10.362 14.6677ZM16.8944 7.59766C18.5278 7.59766 19.3444 8.51699 19.3444 10.3557V13.9957C19.3444 14.2103 19.2791 14.3783 19.1484 14.4997C19.0271 14.6117 18.8544 14.6677 18.6304 14.6677C18.4158 14.6677 18.2431 14.607 18.1124 14.4857C17.9911 14.3643 17.9304 14.201 17.9304 13.9957V10.4257C17.9304 9.84699 17.8138 9.42232 17.5804 9.15166C17.3564 8.88099 17.0018 8.74566 16.5164 8.74566C15.9471 8.74566 15.4898 8.92299 15.1444 9.27766C14.7991 9.63232 14.6264 10.1083 14.6264 10.7057V13.9957C14.6264 14.201 14.5611 14.3643 14.4304 14.4857C14.3091 14.607 14.1411 14.6677 13.9264 14.6677C13.7118 14.6677 13.5391 14.607 13.4084 14.4857C13.2778 14.3643 13.2124 14.201 13.2124 13.9957V8.29766C13.2124 8.10166 13.2778 7.94299 13.4084 7.82166C13.5484 7.69099 13.7211 7.62566 13.9264 7.62566C14.1318 7.62566 14.2951 7.68632 14.4164 7.80766C14.5378 7.92899 14.5984 8.08766 14.5984 8.28366V8.85766C14.8224 8.44699 15.1351 8.13432 15.5364 7.91966C15.9378 7.70499 16.3904 7.59766 16.8944 7.59766ZM24.1488 7.59766C25.0542 7.59766 25.7262 7.82632 26.1648 8.28366C26.6128 8.74099 26.8368 9.43632 26.8368 10.3697V13.9957C26.8368 14.2103 26.7762 14.3783 26.6548 14.4997C26.5335 14.6117 26.3655 14.6677 26.1508 14.6677C25.9455 14.6677 25.7822 14.607 25.6608 14.4857C25.5395 14.3643 25.4788 14.201 25.4788 13.9957V13.4777C25.3015 13.8697 25.0355 14.173 24.6808 14.3877C24.3355 14.593 23.9295 14.6957 23.4628 14.6957C23.0148 14.6957 22.6042 14.607 22.2308 14.4297C21.8668 14.243 21.5775 13.991 21.3628 13.6737C21.1482 13.3563 21.0408 12.997 21.0408 12.5957C21.0315 12.0917 21.1575 11.6997 21.4188 11.4197C21.6802 11.1303 22.1048 10.925 22.6928 10.8037C23.2808 10.673 24.0975 10.6077 25.1428 10.6077H25.4648V10.2017C25.4648 9.67899 25.3575 9.30099 25.1428 9.06766C24.9282 8.83432 24.5828 8.71766 24.1068 8.71766C23.7802 8.71766 23.4722 8.75966 23.1828 8.84366C22.8935 8.92766 22.5762 9.04899 22.2308 9.20766C21.9788 9.34766 21.8015 9.41766 21.6988 9.41766C21.5588 9.41766 21.4422 9.36632 21.3488 9.26366C21.2648 9.16099 21.2228 9.03032 21.2228 8.87166C21.2228 8.73166 21.2602 8.61032 21.3348 8.50766C21.4188 8.39566 21.5495 8.28832 21.7268 8.18566C22.0535 8.00832 22.4362 7.86832 22.8748 7.76566C23.3135 7.65366 23.7382 7.59766 24.1488 7.59766ZM23.7148 13.6457C24.2282 13.6457 24.6482 13.473 24.9748 13.1277C25.3015 12.773 25.4648 12.3203 25.4648 11.7697V11.4057H25.2128C24.4848 11.4057 23.9248 11.4383 23.5328 11.5037C23.1408 11.569 22.8608 11.681 22.6928 11.8397C22.5248 11.989 22.4408 12.2083 22.4408 12.4977C22.4408 12.8337 22.5622 13.109 22.8048 13.3237C23.0475 13.5383 23.3508 13.6457 23.7148 13.6457ZM34.357 4.65766C34.5717 4.65766 34.7443 4.71832 34.875 4.83966C35.0057 4.96099 35.071 5.12432 35.071 5.32966V13.9817C35.071 14.1963 35.0057 14.3643 34.875 14.4857C34.7537 14.607 34.5857 14.6677 34.371 14.6677C34.1563 14.6677 33.9837 14.607 33.853 14.4857C33.7317 14.3643 33.671 14.1963 33.671 13.9817V13.4217C33.4657 13.8323 33.167 14.1497 32.775 14.3737C32.383 14.5883 31.9303 14.6957 31.417 14.6957C30.829 14.6957 30.3017 14.5463 29.835 14.2477C29.3777 13.949 29.0183 13.529 28.757 12.9877C28.505 12.4463 28.379 11.8257 28.379 11.1257C28.379 10.4163 28.505 9.79566 28.757 9.26366C29.0183 8.73166 29.3777 8.32099 29.835 8.03166C30.2923 7.74232 30.8197 7.59766 31.417 7.59766C31.9303 7.59766 32.3783 7.70966 32.761 7.93366C33.153 8.14832 33.4517 8.45632 33.657 8.85766V5.30166C33.657 5.10566 33.7177 4.95166 33.839 4.83966C33.9697 4.71832 34.1423 4.65766 34.357 4.65766ZM31.753 13.5757C32.3597 13.5757 32.831 13.3657 33.167 12.9457C33.503 12.5257 33.671 11.9283 33.671 11.1537C33.671 10.379 33.503 9.78166 33.167 9.36166C32.8403 8.94166 32.369 8.73166 31.753 8.73166C31.137 8.73166 30.6563 8.94166 30.311 9.36166C29.975 9.77232 29.807 10.3603 29.807 11.1257C29.807 11.891 29.9797 12.493 30.325 12.9317C30.6703 13.361 31.1463 13.5757 31.753 13.5757ZM37.7565 14.6677C37.5512 14.6677 37.3785 14.6117 37.2385 14.4997C37.1078 14.3877 37.0425 14.2197 37.0425 13.9957V8.31166C37.0425 8.08766 37.1078 7.91966 37.2385 7.80766C37.3785 7.68632 37.5512 7.62566 37.7565 7.62566C37.9618 7.62566 38.1298 7.68632 38.2605 7.80766C38.3912 7.91966 38.4565 8.08766 38.4565 8.31166V13.9957C38.4565 14.2197 38.3912 14.3877 38.2605 14.4997C38.1298 14.6117 37.9618 14.6677 37.7565 14.6677ZM37.7565 6.25366C37.4858 6.25366 37.2712 6.17899 37.1125 6.02966C36.9538 5.88032 36.8745 5.68432 36.8745 5.44166C36.8745 5.19899 36.9538 5.00766 37.1125 4.86766C37.2712 4.71832 37.4858 4.64366 37.7565 4.64366C38.0178 4.64366 38.2278 4.71832 38.3865 4.86766C38.5545 5.00766 38.6385 5.19899 38.6385 5.44166C38.6385 5.68432 38.5592 5.88032 38.4005 6.02966C38.2418 6.17899 38.0272 6.25366 37.7565 6.25366ZM48.2731 7.59766C49.8038 7.59766 50.5691 8.51699 50.5691 10.3557V13.9957C50.5691 14.2103 50.5038 14.3783 50.3731 14.4997C50.2425 14.6117 50.0698 14.6677 49.8551 14.6677C49.6498 14.6677 49.4818 14.6117 49.3511 14.4997C49.2205 14.3783 49.1551 14.2103 49.1551 13.9957V10.3697C49.1551 9.80032 49.0525 9.38966 48.8471 9.13766C48.6418 8.87632 48.3198 8.74566 47.8811 8.74566C47.3678 8.74566 46.9618 8.92299 46.6631 9.27766C46.3645 9.62299 46.2151 10.099 46.2151 10.7057V13.9957C46.2151 14.2103 46.1498 14.3783 46.0191 14.4997C45.8885 14.6117 45.7158 14.6677 45.5011 14.6677C45.2958 14.6677 45.1278 14.6117 44.9971 14.4997C44.8665 14.3783 44.8011 14.2103 44.8011 13.9957V10.3697C44.8011 9.80032 44.6985 9.38966 44.4931 9.13766C44.2878 8.87632 43.9658 8.74566 43.5271 8.74566C43.0138 8.74566 42.6031 8.92299 42.2951 9.27766C41.9965 9.62299 41.8471 10.099 41.8471 10.7057V13.9957C41.8471 14.2103 41.7818 14.3783 41.6511 14.4997C41.5205 14.6117 41.3525 14.6677 41.1471 14.6677C40.9418 14.6677 40.7691 14.6117 40.6291 14.4997C40.4985 14.3783 40.4331 14.2103 40.4331 13.9957V8.29766C40.4331 8.09232 40.5031 7.92899 40.6431 7.80766C40.7831 7.68632 40.9511 7.62566 41.1471 7.62566C41.3431 7.62566 41.5018 7.68632 41.6231 7.80766C41.7538 7.91966 41.8191 8.07832 41.8191 8.28366V8.80166C42.0245 8.40966 42.3091 8.11099 42.6731 7.90566C43.0371 7.70032 43.4571 7.59766 43.9331 7.59766C44.4558 7.59766 44.8851 7.70499 45.2211 7.91966C45.5665 8.13432 45.8231 8.46566 45.9911 8.91366C46.1965 8.51232 46.4998 8.19499 46.9011 7.96166C47.3025 7.71899 47.7598 7.59766 48.2731 7.59766ZM56.1734 7.59766C56.7614 7.59766 57.2841 7.74699 57.7414 8.04566C58.2081 8.34432 58.5674 8.76432 58.8194 9.30566C59.0807 9.84699 59.2114 10.4723 59.2114 11.1817C59.2114 11.8817 59.0854 12.4977 58.8334 13.0297C58.5814 13.5617 58.2221 13.9723 57.7554 14.2617C57.2981 14.551 56.7707 14.6957 56.1734 14.6957C55.6601 14.6957 55.2074 14.5883 54.8154 14.3737C54.4234 14.1497 54.1247 13.8323 53.9194 13.4217V16.5437C53.9194 16.7397 53.8541 16.8937 53.7234 17.0057C53.6021 17.127 53.4387 17.1877 53.2334 17.1877C53.0187 17.1877 52.8414 17.127 52.7014 17.0057C52.5707 16.8843 52.5054 16.721 52.5054 16.5157V8.31166C52.5054 8.10632 52.5707 7.94299 52.7014 7.82166C52.8321 7.69099 53.0047 7.62566 53.2194 7.62566C53.4247 7.62566 53.5927 7.69099 53.7234 7.82166C53.8541 7.94299 53.9194 8.10632 53.9194 8.31166V8.88566C54.1247 8.47499 54.4234 8.15766 54.8154 7.93366C55.2074 7.70966 55.6601 7.59766 56.1734 7.59766ZM55.8374 13.5757C56.4534 13.5757 56.9294 13.3703 57.2654 12.9597C57.6014 12.5397 57.7694 11.947 57.7694 11.1817C57.7694 10.407 57.5967 9.80499 57.2514 9.37566C56.9154 8.94632 56.4441 8.73166 55.8374 8.73166C55.2214 8.73166 54.7454 8.94166 54.4094 9.36166C54.0827 9.78166 53.9194 10.379 53.9194 11.1537C53.9194 11.9283 54.0827 12.5257 54.4094 12.9457C54.7454 13.3657 55.2214 13.5757 55.8374 13.5757ZM61.4909 14.6677C61.2855 14.6677 61.1129 14.6117 60.9729 14.4997C60.8422 14.3877 60.7769 14.2197 60.7769 13.9957V5.34366C60.7769 5.11966 60.8422 4.95166 60.9729 4.83966C61.1129 4.71832 61.2855 4.65766 61.4909 4.65766C61.6962 4.65766 61.8642 4.71832 61.9949 4.83966C62.1255 4.95166 62.1909 5.11966 62.1909 5.34366V13.9957C62.1909 14.2197 62.1255 14.3877 61.9949 14.4997C61.8642 14.6117 61.6962 14.6677 61.4909 14.6677ZM69.5155 12.8757C69.6462 12.8757 69.7535 12.927 69.8375 13.0297C69.9215 13.1323 69.9635 13.263 69.9635 13.4217C69.9635 13.6923 69.7955 13.921 69.4595 14.1077C69.1328 14.2943 68.7735 14.439 68.3815 14.5417C67.9988 14.6443 67.6302 14.6957 67.2755 14.6957C66.1928 14.6957 65.3388 14.383 64.7135 13.7577C64.0882 13.123 63.7755 12.2597 63.7755 11.1677C63.7755 10.4677 63.9108 9.84699 64.1815 9.30566C64.4615 8.76432 64.8488 8.34432 65.3435 8.04566C65.8475 7.74699 66.4168 7.59766 67.0515 7.59766C67.9662 7.59766 68.6895 7.89166 69.2215 8.47966C69.7535 9.06766 70.0195 9.86099 70.0195 10.8597C70.0195 11.233 69.8515 11.4197 69.5155 11.4197H65.1895C65.2828 12.8663 65.9782 13.5897 67.2755 13.5897C67.6208 13.5897 67.9195 13.543 68.1715 13.4497C68.4235 13.3563 68.6895 13.235 68.9695 13.0857C68.9975 13.067 69.0722 13.0297 69.1935 12.9737C69.3242 12.9083 69.4315 12.8757 69.5155 12.8757ZM67.0795 8.63366C66.5382 8.63366 66.1042 8.80632 65.7775 9.15166C65.4508 9.49699 65.2548 9.98232 65.1895 10.6077H68.8015C68.7735 9.97299 68.6102 9.48766 68.3115 9.15166C68.0222 8.80632 67.6115 8.63366 67.0795 8.63366ZM75.2597 7.59766C76.893 7.59766 77.7097 8.51699 77.7097 10.3557V13.9957C77.7097 14.2103 77.6443 14.3783 77.5137 14.4997C77.3923 14.6117 77.2197 14.6677 76.9957 14.6677C76.781 14.6677 76.6083 14.607 76.4777 14.4857C76.3563 14.3643 76.2957 14.201 76.2957 13.9957V10.4257C76.2957 9.84699 76.179 9.42232 75.9457 9.15166C75.7217 8.88099 75.367 8.74566 74.8817 8.74566C74.3123 8.74566 73.855 8.92299 73.5097 9.27766C73.1643 9.63232 72.9917 10.1083 72.9917 10.7057V13.9957C72.9917 14.201 72.9263 14.3643 72.7957 14.4857C72.6743 14.607 72.5063 14.6677 72.2917 14.6677C72.077 14.6677 71.9043 14.607 71.7737 14.4857C71.643 14.3643 71.5777 14.201 71.5777 13.9957V8.29766C71.5777 8.10166 71.643 7.94299 71.7737 7.82166C71.9137 7.69099 72.0863 7.62566 72.2917 7.62566C72.497 7.62566 72.6603 7.68632 72.7817 7.80766C72.903 7.92899 72.9637 8.08766 72.9637 8.28366V8.85766C73.1877 8.44699 73.5003 8.13432 73.9017 7.91966C74.303 7.70499 74.7557 7.59766 75.2597 7.59766ZM82.9901 13.5897C83.1954 13.6083 83.3401 13.6643 83.4241 13.7577C83.5174 13.8417 83.5641 13.963 83.5641 14.1217C83.5641 14.3083 83.4894 14.453 83.3401 14.5557C83.2001 14.649 82.9901 14.6863 82.7101 14.6677L82.3321 14.6397C81.5761 14.5837 81.0114 14.355 80.6381 13.9537C80.2647 13.543 80.0781 12.941 80.0781 12.1477V8.85766H79.2381C78.8274 8.85766 78.6221 8.67566 78.6221 8.31166C78.6221 8.14366 78.6734 8.01299 78.7761 7.91966C78.8881 7.81699 79.0421 7.76566 79.2381 7.76566H80.0781V6.32366C80.0781 6.10899 80.1387 5.94099 80.2601 5.81966C80.3907 5.69832 80.5634 5.63766 80.7781 5.63766C80.9927 5.63766 81.1654 5.69832 81.2961 5.81966C81.4267 5.94099 81.4921 6.10899 81.4921 6.32366V7.76566H82.8781C83.0741 7.76566 83.2234 7.81699 83.3261 7.91966C83.4381 8.01299 83.4941 8.14366 83.4941 8.31166C83.4941 8.48899 83.4381 8.62432 83.3261 8.71766C83.2234 8.81099 83.0741 8.85766 82.8781 8.85766H81.4921V12.2457C81.4921 12.6843 81.5807 13.0063 81.7581 13.2117C81.9447 13.417 82.2247 13.5337 82.5981 13.5617L82.9901 13.5897ZM89.9276 12.8757C90.0583 12.8757 90.1656 12.927 90.2496 13.0297C90.3336 13.1323 90.3756 13.263 90.3756 13.4217C90.3756 13.6923 90.2076 13.921 89.8716 14.1077C89.5449 14.2943 89.1856 14.439 88.7936 14.5417C88.4109 14.6443 88.0423 14.6957 87.6876 14.6957C86.6049 14.6957 85.7509 14.383 85.1256 13.7577C84.5003 13.123 84.1876 12.2597 84.1876 11.1677C84.1876 10.4677 84.3229 9.84699 84.5936 9.30566C84.8736 8.76432 85.2609 8.34432 85.7556 8.04566C86.2596 7.74699 86.8289 7.59766 87.4636 7.59766C88.3783 7.59766 89.1016 7.89166 89.6336 8.47966C90.1656 9.06766 90.4316 9.86099 90.4316 10.8597C90.4316 11.233 90.2636 11.4197 89.9276 11.4197H85.6016C85.6949 12.8663 86.3903 13.5897 87.6876 13.5897C88.0329 13.5897 88.3316 13.543 88.5836 13.4497C88.8356 13.3563 89.1016 13.235 89.3816 13.0857C89.4096 13.067 89.4843 13.0297 89.6056 12.9737C89.7363 12.9083 89.8436 12.8757 89.9276 12.8757ZM87.4916 8.63366C86.9503 8.63366 86.5163 8.80632 86.1896 9.15166C85.8629 9.49699 85.6669 9.98232 85.6016 10.6077H89.2136C89.1856 9.97299 89.0223 9.48766 88.7236 9.15166C88.4343 8.80632 88.0236 8.63366 87.4916 8.63366Z" fill="#971D1D"/>
</svg>
