<svg width="24" height="25" viewBox="0 0 24 18" fill="none" xmlns="http://www.w3.org/2000/svg">
<path d="M23.8209 8.181C22.9429 6.261 19.4999 0 11.9999 0C4.49987 0 1.05687 6.261 0.178871 8.181C0.0610095 8.4383 0 8.71799 0 9.001C0 9.28401 0.0610095 9.5637 0.178871 9.821C1.05687 11.739 4.49987 18 11.9999 18C19.4999 18 22.9429 11.739 23.8209 9.819C23.9385 9.56199 23.9994 9.28265 23.9994 9C23.9994 8.71735 23.9385 8.43801 23.8209 8.181ZM11.9999 16C5.69287 16 2.74987 10.634 1.99987 9.011C2.74987 7.366 5.69287 2 11.9999 2C18.2919 2 21.2359 7.343 21.9999 9C21.2359 10.657 18.2919 16 11.9999 16Z" fill="#747488"/>
<path d="M11.9999 4C11.011 4 10.0443 4.29324 9.22203 4.84265C8.39978 5.39206 7.75892 6.17295 7.38048 7.08658C7.00204 8.00021 6.90303 9.00555 7.09595 9.97545C7.28888 10.9454 7.76508 11.8363 8.46435 12.5355C9.16361 13.2348 10.0545 13.711 11.0244 13.9039C11.9943 14.0969 12.9997 13.9978 13.9133 13.6194C14.8269 13.241 15.6078 12.6001 16.1572 11.7779C16.7066 10.9556 16.9999 9.98891 16.9999 9C16.9983 7.67441 16.471 6.40356 15.5337 5.46622C14.5963 4.52888 13.3255 4.00159 11.9999 4ZM11.9999 12C11.4065 12 10.8265 11.8241 10.3332 11.4944C9.83982 11.1648 9.4553 10.6962 9.22824 10.1481C9.00118 9.59987 8.94177 8.99667 9.05752 8.41473C9.17328 7.83279 9.459 7.29824 9.87856 6.87868C10.2981 6.45912 10.8327 6.1734 11.4146 6.05764C11.9966 5.94189 12.5998 6.0013 13.1479 6.22836C13.6961 6.45542 14.1646 6.83994 14.4943 7.33329C14.8239 7.82664 14.9999 8.40666 14.9999 9C14.9999 9.79565 14.6838 10.5587 14.1212 11.1213C13.5586 11.6839 12.7955 12 11.9999 12Z" fill="#747488"/>
</svg>
