<svg width="97" height="20" viewBox="0 0 97 20" fill="none" xmlns="http://www.w3.org/2000/svg">
<rect x="0.5" y="0.842285" width="96" height="19" rx="8" fill="#EEF6F6"/>
<path d="M28.362 14.8423C28.138 14.8423 27.9607 14.7816 27.83 14.6603C27.7087 14.5296 27.648 14.357 27.648 14.1423V5.67228C27.648 5.45762 27.7087 5.28962 27.83 5.16828C27.9607 5.03762 28.138 4.97228 28.362 4.97228H33.514C33.7287 4.97228 33.892 5.02362 34.004 5.12629C34.1253 5.22895 34.186 5.37362 34.186 5.56028C34.186 5.74695 34.1253 5.89162 34.004 5.99428C33.892 6.08762 33.7287 6.13428 33.514 6.13428H29.062V9.24229H33.234C33.4487 9.24229 33.612 9.29362 33.724 9.39628C33.8453 9.49895 33.906 9.64362 33.906 9.83029C33.906 10.017 33.8453 10.1616 33.724 10.2643C33.612 10.367 33.4487 10.4183 33.234 10.4183H29.062V13.6803H33.514C33.962 13.6803 34.186 13.8716 34.186 14.2543C34.186 14.441 34.1253 14.5856 34.004 14.6883C33.892 14.791 33.7287 14.8423 33.514 14.8423H28.362ZM43.5095 7.84229C45.0401 7.84229 45.8055 8.76162 45.8055 10.6003V14.2403C45.8055 14.455 45.7401 14.623 45.6095 14.7443C45.4788 14.8563 45.3061 14.9123 45.0915 14.9123C44.8861 14.9123 44.7181 14.8563 44.5875 14.7443C44.4568 14.623 44.3915 14.455 44.3915 14.2403V10.6143C44.3915 10.045 44.2888 9.63429 44.0835 9.38228C43.8781 9.12095 43.5561 8.99028 43.1175 8.99028C42.6041 8.99028 42.1981 9.16762 41.8995 9.52228C41.6008 9.86762 41.4515 10.3436 41.4515 10.9503V14.2403C41.4515 14.455 41.3861 14.623 41.2555 14.7443C41.1248 14.8563 40.9521 14.9123 40.7375 14.9123C40.5321 14.9123 40.3641 14.8563 40.2335 14.7443C40.1028 14.623 40.0375 14.455 40.0375 14.2403V10.6143C40.0375 10.045 39.9348 9.63429 39.7295 9.38228C39.5241 9.12095 39.2021 8.99028 38.7635 8.99028C38.2501 8.99028 37.8395 9.16762 37.5315 9.52228C37.2328 9.86762 37.0835 10.3436 37.0835 10.9503V14.2403C37.0835 14.455 37.0181 14.623 36.8875 14.7443C36.7568 14.8563 36.5888 14.9123 36.3835 14.9123C36.1781 14.9123 36.0055 14.8563 35.8655 14.7443C35.7348 14.623 35.6695 14.455 35.6695 14.2403V8.54228C35.6695 8.33695 35.7395 8.17362 35.8795 8.05228C36.0195 7.93095 36.1875 7.87028 36.3835 7.87028C36.5795 7.87028 36.7381 7.93095 36.8595 8.05228C36.9901 8.16428 37.0555 8.32295 37.0555 8.52828V9.04628C37.2608 8.65428 37.5455 8.35562 37.9095 8.15028C38.2735 7.94495 38.6935 7.84229 39.1695 7.84229C39.6921 7.84229 40.1215 7.94962 40.4575 8.16428C40.8028 8.37895 41.0595 8.71028 41.2275 9.15828C41.4328 8.75695 41.7361 8.43962 42.1375 8.20628C42.5388 7.96362 42.9961 7.84229 43.5095 7.84229ZM57.0191 4.90228C57.2338 4.90228 57.4065 4.96295 57.5371 5.08428C57.6678 5.20562 57.7331 5.36895 57.7331 5.57428V14.2263C57.7331 14.441 57.6678 14.609 57.5371 14.7303C57.4158 14.8516 57.2478 14.9123 57.0331 14.9123C56.8185 14.9123 56.6458 14.8516 56.5151 14.7303C56.3938 14.609 56.3331 14.441 56.3331 14.2263V13.6663C56.1278 14.077 55.8291 14.3943 55.4371 14.6183C55.0451 14.833 54.5925 14.9403 54.0791 14.9403C53.4911 14.9403 52.9638 14.791 52.4971 14.4923C52.0398 14.1936 51.6805 13.7736 51.4191 13.2323C51.1671 12.691 51.0411 12.0703 51.0411 11.3703C51.0411 10.661 51.1671 10.0403 51.4191 9.50828C51.6805 8.97628 52.0398 8.56562 52.4971 8.27628C52.9545 7.98695 53.4818 7.84229 54.0791 7.84229C54.5925 7.84229 55.0405 7.95429 55.4231 8.17829C55.8151 8.39295 56.1138 8.70095 56.3191 9.10228V5.54628C56.3191 5.35028 56.3798 5.19628 56.5011 5.08428C56.6318 4.96295 56.8045 4.90228 57.0191 4.90228ZM54.4151 13.8203C55.0218 13.8203 55.4931 13.6103 55.8291 13.1903C56.1651 12.7703 56.3331 12.173 56.3331 11.3983C56.3331 10.6236 56.1651 10.0263 55.8291 9.60628C55.5025 9.18628 55.0311 8.97628 54.4151 8.97628C53.7991 8.97628 53.3185 9.18628 52.9731 9.60628C52.6371 10.017 52.4691 10.605 52.4691 11.3703C52.4691 12.1356 52.6418 12.7376 52.9871 13.1763C53.3325 13.6056 53.8085 13.8203 54.4151 13.8203ZM60.4186 14.9123C60.2133 14.9123 60.0406 14.8563 59.9006 14.7443C59.7699 14.6323 59.7046 14.4643 59.7046 14.2403V8.55628C59.7046 8.33228 59.7699 8.16428 59.9006 8.05228C60.0406 7.93095 60.2133 7.87028 60.4186 7.87028C60.6239 7.87028 60.7919 7.93095 60.9226 8.05228C61.0533 8.16428 61.1186 8.33228 61.1186 8.55628V14.2403C61.1186 14.4643 61.0533 14.6323 60.9226 14.7443C60.7919 14.8563 60.6239 14.9123 60.4186 14.9123ZM60.4186 6.49828C60.1479 6.49828 59.9333 6.42362 59.7746 6.27428C59.6159 6.12495 59.5366 5.92895 59.5366 5.68628C59.5366 5.44362 59.6159 5.25228 59.7746 5.11228C59.9333 4.96295 60.1479 4.88828 60.4186 4.88828C60.6799 4.88828 60.8899 4.96295 61.0486 5.11228C61.2166 5.25228 61.3006 5.44362 61.3006 5.68628C61.3006 5.92895 61.2213 6.12495 61.0626 6.27428C60.9039 6.42362 60.6893 6.49828 60.4186 6.49828ZM65.9652 7.84229C66.8706 7.84229 67.5426 8.07095 67.9812 8.52828C68.4292 8.98562 68.6532 9.68095 68.6532 10.6143V14.2403C68.6532 14.455 68.5926 14.623 68.4712 14.7443C68.3499 14.8563 68.1819 14.9123 67.9672 14.9123C67.7619 14.9123 67.5986 14.8516 67.4772 14.7303C67.3559 14.609 67.2952 14.4456 67.2952 14.2403V13.7223C67.1179 14.1143 66.8519 14.4176 66.4972 14.6323C66.1519 14.8376 65.7459 14.9403 65.2792 14.9403C64.8312 14.9403 64.4206 14.8516 64.0472 14.6743C63.6832 14.4876 63.3939 14.2356 63.1792 13.9183C62.9646 13.601 62.8572 13.2416 62.8572 12.8403C62.8479 12.3363 62.9739 11.9443 63.2352 11.6643C63.4966 11.375 63.9212 11.1696 64.5092 11.0483C65.0972 10.9176 65.9139 10.8523 66.9592 10.8523H67.2812V10.4463C67.2812 9.92362 67.1739 9.54562 66.9592 9.31229C66.7446 9.07895 66.3992 8.96228 65.9232 8.96228C65.5966 8.96228 65.2886 9.00428 64.9992 9.08828C64.7099 9.17229 64.3926 9.29362 64.0472 9.45228C63.7952 9.59229 63.6179 9.66229 63.5152 9.66229C63.3752 9.66229 63.2586 9.61095 63.1652 9.50828C63.0812 9.40562 63.0392 9.27495 63.0392 9.11629C63.0392 8.97628 63.0766 8.85495 63.1512 8.75228C63.2352 8.64028 63.3659 8.53295 63.5432 8.43028C63.8699 8.25295 64.2526 8.11295 64.6912 8.01028C65.1299 7.89828 65.5546 7.84229 65.9652 7.84229ZM65.5312 13.8903C66.0446 13.8903 66.4646 13.7176 66.7912 13.3723C67.1179 13.0176 67.2812 12.565 67.2812 12.0143V11.6503H67.0292C66.3012 11.6503 65.7412 11.683 65.3492 11.7483C64.9572 11.8136 64.6772 11.9256 64.5092 12.0843C64.3412 12.2336 64.2572 12.453 64.2572 12.7423C64.2572 13.0783 64.3786 13.3536 64.6212 13.5683C64.8639 13.783 65.1672 13.8903 65.5312 13.8903Z" fill="#1FA7AF"/>
</svg>
